<svg width="487" height="490" viewBox="0 0 487 490" fill="none" xmlns="http://www.w3.org/2000/svg">
<path d="M243.183 0.5C377.209 0.500199 485.864 109.772 485.864 244.57C485.864 379.369 377.209 488.639 243.183 488.64C109.156 488.64 0.500197 379.369 0.5 244.57C0.5 109.772 109.156 0.5 243.183 0.5Z" fill="white" stroke="black"/>
<rect x="41.0905" y="214.877" width="24.333" height="75.6179" rx="12.1665" fill="#375E9D" stroke="white"/>
<rect width="20.6631" height="63.065" rx="10.3316" transform="matrix(0.749054 -0.662508 0.622817 0.782368 320.734 244.149)" fill="#375E9D"/>
<rect width="21.2471" height="64.36" rx="10.6236" transform="matrix(0.581573 0.813494 -0.783045 0.621964 367.203 206.944)" fill="#375E9D"/>
<rect x="0.672768" y="0.244767" width="24.1893" height="82.2455" rx="12.0947" transform="matrix(0.911477 -0.411351 0.434058 0.900885 124.997 217.606)" fill="#375E9D" stroke="white"/>
<path d="M236.751 217.871C230.933 221.122 228.985 228.396 232.398 234.119L259.419 279.415C262.833 285.137 270.317 287.141 276.134 283.891C281.951 280.64 283.899 273.366 280.486 267.644L253.464 222.348C250.05 216.625 242.568 214.621 236.751 217.871Z" fill="#375E9D" stroke="white"/>
<rect x="-0.5" y="-0.5" width="23.5177" height="71.4804" rx="11.7589" transform="matrix(0 -1 -1 0 302.42 239.428)" fill="#375E9D" stroke="white"/>
<rect x="-0.5" y="-0.5" width="23.5177" height="100.332" rx="11.7589" transform="matrix(0 -1 -1 0 283.42 288.463)" fill="#375E9D" stroke="white"/>
<rect x="0.238709" y="0.656118" width="24.1893" height="82.2455" rx="12.0947" transform="matrix(0.911477 0.411351 -0.434058 0.900885 134.029 208.215)" fill="#375E9D" stroke="white"/>
<rect x="9.42413" y="235.33" width="23.5177" height="84.4988" rx="11.7589" transform="rotate(-90 9.42413 235.33)" fill="#375E9D" stroke="white"/>
<rect x="379.775" y="262.884" width="22.5163" height="92.7033" rx="11.2582" transform="rotate(-90 379.775 262.884)" fill="#375E9D" stroke="white"/>
<rect x="415.472" y="202.741" width="21.3103" height="97.7686" rx="10.6552" fill="#375E9D" stroke="white"/>
<rect x="317.306" y="193.334" width="21.3103" height="97.7686" rx="10.6551" fill="#375E9D" stroke="white"/>
</svg>
