<svg width="163" height="83" viewBox="0 0 163 83" fill="none" xmlns="http://www.w3.org/2000/svg">
<path d="M29.2273 20.6182L28.659 21.441L29.2273 20.6182ZM73.1033 36.2716L73.0225 37.2683L73.1033 36.2716ZM110.044 39.2668L110.125 38.2701L110.044 39.2668ZM133.836 47.7254L133.269 48.5495L133.836 47.7254ZM138.999 51.2755L139.566 50.4514L138.999 51.2755ZM154.361 82.5299C154.752 82.9204 155.385 82.9204 155.775 82.5299L162.139 76.1659C162.53 75.7754 162.53 75.1423 162.139 74.7517C161.749 74.3612 161.116 74.3612 160.725 74.7517L155.068 80.4086L149.411 74.7517C149.021 74.3612 148.388 74.3612 147.997 74.7517C147.607 75.1423 147.607 75.7754 147.997 76.1659L154.361 82.5299ZM0.568298 0.8228L-2.91128e-05 1.6456L28.659 21.441L29.2273 20.6182L29.7956 19.7954L1.13663 -2.69277e-06L0.568298 0.8228ZM73.1033 36.2716L73.0225 37.2683L109.964 40.2635L110.044 39.2668L110.125 38.2701L73.1842 35.2749L73.1033 36.2716ZM133.836 47.7254L133.269 48.5495L138.433 52.0995L138.999 51.2755L139.566 50.4514L134.402 46.9014L133.836 47.7254ZM138.999 51.2755L138.433 52.0995C148.221 58.8286 154.068 69.945 154.068 81.8228H155.068H156.068C156.068 69.2864 149.896 57.5536 139.566 50.4514L138.999 51.2755ZM29.2273 20.6182L28.659 21.441C41.8015 30.5188 57.1019 35.9775 73.0225 37.2683L73.1033 36.2716L73.1842 35.2749C57.6134 34.0124 42.6493 28.6737 29.7956 19.7954L29.2273 20.6182ZM110.044 39.2668L109.964 40.2635C118.323 40.9413 126.358 43.7982 133.269 48.5495L133.836 47.7254L134.402 46.9014C127.203 41.9521 118.833 38.9761 110.125 38.2701L110.044 39.2668Z" fill="black"/>
</svg>
