<svg width="38" height="36" viewBox="0 0 38 36" fill="none" xmlns="http://www.w3.org/2000/svg">
<path d="M18.9998 10.5C18.9998 8.9087 18.3326 7.38258 17.1448 6.25736C15.9571 5.13214 14.3462 4.5 12.6665 4.5H3.1665V27H14.2498C15.5096 27 16.7178 27.4741 17.6086 28.318C18.4994 29.1619 18.9998 30.3065 18.9998 31.5M18.9998 10.5V31.5M18.9998 10.5C18.9998 8.9087 19.6671 7.38258 20.8548 6.25736C22.0426 5.13214 23.6535 4.5 25.3332 4.5H34.8332V27H23.7498C22.4901 27 21.2819 27.4741 20.3911 28.318C19.5003 29.1619 18.9998 30.3065 18.9998 31.5" stroke="#1E1E1E" stroke-width="4" stroke-linecap="round" stroke-linejoin="round"/>
</svg>
