<svg width="609" height="183" viewBox="0 0 609 183" fill="none" xmlns="http://www.w3.org/2000/svg">
<rect x="0.5" y="0.5" width="608" height="182" rx="23.5" fill="white"/>
<rect x="0.5" y="0.5" width="608" height="182" rx="23.5" stroke="black"/>
<path d="M29.2614 45L22.6023 21.7273H27.9773L31.8295 37.8977H32.0227L36.2727 21.7273H40.875L45.1136 37.9318H45.3182L49.1705 21.7273H54.5455L47.8864 45H43.0909L38.6591 29.7841H38.4773L34.0568 45H29.2614ZM63.1676 45.3409C61.3722 45.3409 59.8267 44.9773 58.5312 44.25C57.2434 43.5152 56.2509 42.4773 55.554 41.1364C54.857 39.7879 54.5085 38.1932 54.5085 36.3523C54.5085 34.5568 54.857 32.9811 55.554 31.625C56.2509 30.2689 57.232 29.2121 58.4972 28.4545C59.7699 27.697 61.2623 27.3182 62.9744 27.3182C64.1259 27.3182 65.1979 27.5038 66.1903 27.875C67.1903 28.2386 68.0616 28.7879 68.804 29.5227C69.554 30.2576 70.1373 31.1818 70.554 32.2955C70.9706 33.4015 71.179 34.697 71.179 36.1818V37.5114H56.4403V34.5114H66.6222C66.6222 33.8144 66.4706 33.197 66.1676 32.6591C65.8646 32.1212 65.4441 31.7008 64.9062 31.3977C64.3759 31.0871 63.7585 30.9318 63.054 30.9318C62.3191 30.9318 61.6676 31.1023 61.0994 31.4432C60.5388 31.7765 60.0994 32.2273 59.7812 32.7955C59.4631 33.3561 59.3002 33.9811 59.2926 34.6705V37.5227C59.2926 38.3864 59.4517 39.1326 59.7699 39.7614C60.0956 40.3902 60.554 40.875 61.1449 41.2159C61.7358 41.5568 62.4366 41.7273 63.2472 41.7273C63.785 41.7273 64.2775 41.6515 64.7244 41.5C65.1714 41.3485 65.554 41.1212 65.8722 40.8182C66.1903 40.5152 66.4328 40.1439 66.5994 39.7045L71.0767 40C70.8494 41.0758 70.3835 42.0152 69.679 42.8182C68.982 43.6136 68.0805 44.2348 66.9744 44.6818C65.8759 45.1212 64.607 45.3409 63.1676 45.3409ZM74.429 45V21.7273H79.2699V30.4773H79.4176C79.6297 30.0076 79.9366 29.5303 80.3381 29.0455C80.7472 28.553 81.2775 28.1439 81.929 27.8182C82.5881 27.4848 83.4063 27.3182 84.3835 27.3182C85.6563 27.3182 86.8305 27.6515 87.9062 28.3182C88.982 28.9773 89.8419 29.9735 90.4858 31.3068C91.1297 32.6326 91.4517 34.2955 91.4517 36.2955C91.4517 38.2424 91.1373 39.8864 90.5085 41.2273C89.8873 42.5606 89.0388 43.572 87.9631 44.2614C86.8949 44.9432 85.6979 45.2841 84.3722 45.2841C83.4328 45.2841 82.6335 45.1288 81.9744 44.8182C81.3229 44.5076 80.7888 44.1174 80.3722 43.6477C79.9555 43.1705 79.6373 42.6894 79.4176 42.2045H79.2017V45H74.429ZM79.1676 36.2727C79.1676 37.3106 79.3116 38.2159 79.5994 38.9886C79.8873 39.7614 80.304 40.3636 80.8494 40.7955C81.3949 41.2197 82.0578 41.4318 82.8381 41.4318C83.6259 41.4318 84.2926 41.2159 84.8381 40.7841C85.3835 40.3447 85.7964 39.7386 86.0767 38.9659C86.3646 38.1856 86.5085 37.2879 86.5085 36.2727C86.5085 35.2652 86.3684 34.3788 86.0881 33.6136C85.8078 32.8485 85.3949 32.25 84.8494 31.8182C84.304 31.3864 83.6335 31.1705 82.8381 31.1705C82.0502 31.1705 81.3835 31.3788 80.8381 31.7955C80.3002 32.2121 79.8873 32.803 79.5994 33.5682C79.3116 34.3333 79.1676 35.2348 79.1676 36.2727ZM109.205 32.5227L104.773 32.7955C104.697 32.4167 104.534 32.0758 104.284 31.7727C104.034 31.4621 103.705 31.2159 103.295 31.0341C102.894 30.8447 102.413 30.75 101.852 30.75C101.102 30.75 100.47 30.9091 99.9545 31.2273C99.4394 31.5379 99.1818 31.9545 99.1818 32.4773C99.1818 32.8939 99.3485 33.2462 99.6818 33.5341C100.015 33.822 100.587 34.053 101.398 34.2273L104.557 34.8636C106.254 35.2121 107.519 35.7727 108.352 36.5455C109.186 37.3182 109.602 38.3333 109.602 39.5909C109.602 40.7348 109.265 41.7386 108.591 42.6023C107.924 43.4659 107.008 44.1402 105.841 44.625C104.682 45.1023 103.345 45.3409 101.83 45.3409C99.5189 45.3409 97.678 44.8598 96.3068 43.8977C94.9432 42.928 94.1439 41.6098 93.9091 39.9432L98.6705 39.6932C98.8144 40.3977 99.1629 40.9356 99.7159 41.3068C100.269 41.6705 100.977 41.8523 101.841 41.8523C102.689 41.8523 103.371 41.6894 103.886 41.3636C104.409 41.0303 104.674 40.6023 104.682 40.0795C104.674 39.6402 104.489 39.2803 104.125 39C103.761 38.7121 103.201 38.4924 102.443 38.3409L99.4205 37.7386C97.7159 37.3977 96.447 36.8068 95.6136 35.9659C94.7879 35.125 94.375 34.053 94.375 32.75C94.375 31.6288 94.678 30.6629 95.2841 29.8523C95.8977 29.0417 96.7576 28.4167 97.8636 27.9773C98.9773 27.5379 100.28 27.3182 101.773 27.3182C103.977 27.3182 105.712 27.7841 106.977 28.7159C108.25 29.6477 108.992 30.9167 109.205 32.5227ZM112.651 45V27.5455H117.491V45H112.651ZM115.082 25.2955C114.363 25.2955 113.745 25.0568 113.23 24.5795C112.723 24.0947 112.469 23.5152 112.469 22.8409C112.469 22.1742 112.723 21.6023 113.23 21.125C113.745 20.6402 114.363 20.3977 115.082 20.3977C115.802 20.3977 116.416 20.6402 116.923 21.125C117.438 21.6023 117.696 22.1742 117.696 22.8409C117.696 23.5152 117.438 24.0947 116.923 24.5795C116.416 25.0568 115.802 25.2955 115.082 25.2955ZM130.653 27.5455V31.1818H120.142V27.5455H130.653ZM122.528 23.3636H127.369V39.6364C127.369 40.0833 127.438 40.4318 127.574 40.6818C127.71 40.9242 127.9 41.0947 128.142 41.1932C128.392 41.2917 128.68 41.3409 129.006 41.3409C129.233 41.3409 129.46 41.322 129.688 41.2841C129.915 41.2386 130.089 41.2045 130.21 41.1818L130.972 44.7841C130.729 44.8598 130.388 44.947 129.949 45.0455C129.509 45.1515 128.975 45.2159 128.347 45.2386C127.18 45.2841 126.157 45.1288 125.278 44.7727C124.407 44.4167 123.729 43.8636 123.244 43.1136C122.759 42.3636 122.521 41.4167 122.528 40.2727V23.3636ZM141.574 45.3409C139.778 45.3409 138.233 44.9773 136.938 44.25C135.65 43.5152 134.657 42.4773 133.96 41.1364C133.263 39.7879 132.915 38.1932 132.915 36.3523C132.915 34.5568 133.263 32.9811 133.96 31.625C134.657 30.2689 135.638 29.2121 136.903 28.4545C138.176 27.697 139.669 27.3182 141.381 27.3182C142.532 27.3182 143.604 27.5038 144.597 27.875C145.597 28.2386 146.468 28.7879 147.21 29.5227C147.96 30.2576 148.544 31.1818 148.96 32.2955C149.377 33.4015 149.585 34.697 149.585 36.1818V37.5114H134.847V34.5114H145.028C145.028 33.8144 144.877 33.197 144.574 32.6591C144.271 32.1212 143.85 31.7008 143.312 31.3977C142.782 31.0871 142.165 30.9318 141.46 30.9318C140.725 30.9318 140.074 31.1023 139.506 31.4432C138.945 31.7765 138.506 32.2273 138.188 32.7955C137.869 33.3561 137.706 33.9811 137.699 34.6705V37.5227C137.699 38.3864 137.858 39.1326 138.176 39.7614C138.502 40.3902 138.96 40.875 139.551 41.2159C140.142 41.5568 140.843 41.7273 141.653 41.7273C142.191 41.7273 142.684 41.6515 143.131 41.5C143.578 41.3485 143.96 41.1212 144.278 40.8182C144.597 40.5152 144.839 40.1439 145.006 39.7045L149.483 40C149.256 41.0758 148.79 42.0152 148.085 42.8182C147.388 43.6136 146.487 44.2348 145.381 44.6818C144.282 45.1212 143.013 45.3409 141.574 45.3409ZM166.582 45.2841C165.257 45.2841 164.056 44.9432 162.98 44.2614C161.912 43.572 161.063 42.5606 160.435 41.2273C159.813 39.8864 159.503 38.2424 159.503 36.2955C159.503 34.2955 159.825 32.6326 160.469 31.3068C161.113 29.9735 161.969 28.9773 163.037 28.3182C164.113 27.6515 165.291 27.3182 166.571 27.3182C167.548 27.3182 168.363 27.4848 169.014 27.8182C169.673 28.1439 170.204 28.553 170.605 29.0455C171.014 29.5303 171.325 30.0076 171.537 30.4773H171.685V21.7273H176.514V45H171.741V42.2045H171.537C171.31 42.6894 170.988 43.1705 170.571 43.6477C170.162 44.1174 169.628 44.5076 168.969 44.8182C168.317 45.1288 167.522 45.2841 166.582 45.2841ZM168.116 41.4318C168.897 41.4318 169.556 41.2197 170.094 40.7955C170.639 40.3636 171.056 39.7614 171.344 38.9886C171.639 38.2159 171.787 37.3106 171.787 36.2727C171.787 35.2348 171.643 34.3333 171.355 33.5682C171.067 32.803 170.651 32.2121 170.105 31.7955C169.56 31.3788 168.897 31.1705 168.116 31.1705C167.321 31.1705 166.651 31.3864 166.105 31.8182C165.56 32.25 165.147 32.8485 164.866 33.6136C164.586 34.3788 164.446 35.2652 164.446 36.2727C164.446 37.2879 164.586 38.1856 164.866 38.9659C165.154 39.7386 165.567 40.3447 166.105 40.7841C166.651 41.2159 167.321 41.4318 168.116 41.4318ZM188.449 45.3409C186.653 45.3409 185.108 44.9773 183.812 44.25C182.525 43.5152 181.532 42.4773 180.835 41.1364C180.138 39.7879 179.79 38.1932 179.79 36.3523C179.79 34.5568 180.138 32.9811 180.835 31.625C181.532 30.2689 182.513 29.2121 183.778 28.4545C185.051 27.697 186.544 27.3182 188.256 27.3182C189.407 27.3182 190.479 27.5038 191.472 27.875C192.472 28.2386 193.343 28.7879 194.085 29.5227C194.835 30.2576 195.419 31.1818 195.835 32.2955C196.252 33.4015 196.46 34.697 196.46 36.1818V37.5114H181.722V34.5114H191.903C191.903 33.8144 191.752 33.197 191.449 32.6591C191.146 32.1212 190.725 31.7008 190.188 31.3977C189.657 31.0871 189.04 30.9318 188.335 30.9318C187.6 30.9318 186.949 31.1023 186.381 31.4432C185.82 31.7765 185.381 32.2273 185.062 32.7955C184.744 33.3561 184.581 33.9811 184.574 34.6705V37.5227C184.574 38.3864 184.733 39.1326 185.051 39.7614C185.377 40.3902 185.835 40.875 186.426 41.2159C187.017 41.5568 187.718 41.7273 188.528 41.7273C189.066 41.7273 189.559 41.6515 190.006 41.5C190.453 41.3485 190.835 41.1212 191.153 40.8182C191.472 40.5152 191.714 40.1439 191.881 39.7045L196.358 40C196.131 41.0758 195.665 42.0152 194.96 42.8182C194.263 43.6136 193.362 44.2348 192.256 44.6818C191.157 45.1212 189.888 45.3409 188.449 45.3409ZM214.142 32.5227L209.71 32.7955C209.634 32.4167 209.472 32.0758 209.222 31.7727C208.972 31.4621 208.642 31.2159 208.233 31.0341C207.831 30.8447 207.35 30.75 206.79 30.75C206.04 30.75 205.407 30.9091 204.892 31.2273C204.377 31.5379 204.119 31.9545 204.119 32.4773C204.119 32.8939 204.286 33.2462 204.619 33.5341C204.953 33.822 205.525 34.053 206.335 34.2273L209.494 34.8636C211.191 35.2121 212.456 35.7727 213.29 36.5455C214.123 37.3182 214.54 38.3333 214.54 39.5909C214.54 40.7348 214.203 41.7386 213.528 42.6023C212.862 43.4659 211.945 44.1402 210.778 44.625C209.619 45.1023 208.282 45.3409 206.767 45.3409C204.456 45.3409 202.616 44.8598 201.244 43.8977C199.881 42.928 199.081 41.6098 198.847 39.9432L203.608 39.6932C203.752 40.3977 204.1 40.9356 204.653 41.3068C205.206 41.6705 205.915 41.8523 206.778 41.8523C207.627 41.8523 208.309 41.6894 208.824 41.3636C209.347 41.0303 209.612 40.6023 209.619 40.0795C209.612 39.6402 209.426 39.2803 209.062 39C208.699 38.7121 208.138 38.4924 207.381 38.3409L204.358 37.7386C202.653 37.3977 201.384 36.8068 200.551 35.9659C199.725 35.125 199.312 34.053 199.312 32.75C199.312 31.6288 199.616 30.6629 200.222 29.8523C200.835 29.0417 201.695 28.4167 202.801 27.9773C203.915 27.5379 205.218 27.3182 206.71 27.3182C208.915 27.3182 210.65 27.7841 211.915 28.7159C213.188 29.6477 213.93 30.9167 214.142 32.5227ZM217.588 45V27.5455H222.429V45H217.588ZM220.02 25.2955C219.3 25.2955 218.683 25.0568 218.168 24.5795C217.66 24.0947 217.406 23.5152 217.406 22.8409C217.406 22.1742 217.66 21.6023 218.168 21.125C218.683 20.6402 219.3 20.3977 220.02 20.3977C220.74 20.3977 221.353 20.6402 221.861 21.125C222.376 21.6023 222.634 22.1742 222.634 22.8409C222.634 23.5152 222.376 24.0947 221.861 24.5795C221.353 25.0568 220.74 25.2955 220.02 25.2955ZM234.17 51.9091C232.602 51.9091 231.258 51.6932 230.136 51.2614C229.023 50.8371 228.136 50.2576 227.477 49.5227C226.818 48.7879 226.39 47.9621 226.193 47.0455L230.67 46.4432C230.807 46.7917 231.023 47.1174 231.318 47.4205C231.614 47.7235 232.004 47.9659 232.489 48.1477C232.981 48.3371 233.58 48.4318 234.284 48.4318C235.337 48.4318 236.205 48.1742 236.886 47.6591C237.576 47.1515 237.92 46.2992 237.92 45.1023V41.9091H237.716C237.504 42.3939 237.186 42.8523 236.761 43.2841C236.337 43.7159 235.792 44.0682 235.125 44.3409C234.458 44.6136 233.663 44.75 232.739 44.75C231.428 44.75 230.235 44.447 229.159 43.8409C228.091 43.2273 227.239 42.2917 226.602 41.0341C225.973 39.7689 225.659 38.1705 225.659 36.2386C225.659 34.2614 225.981 32.6098 226.625 31.2841C227.269 29.9583 228.125 28.9659 229.193 28.3068C230.269 27.6477 231.447 27.3182 232.727 27.3182C233.705 27.3182 234.523 27.4848 235.182 27.8182C235.841 28.1439 236.371 28.553 236.773 29.0455C237.182 29.5303 237.496 30.0076 237.716 30.4773H237.898V27.5455H242.705V45.1705C242.705 46.6553 242.341 47.8977 241.614 48.8977C240.886 49.8977 239.879 50.6477 238.591 51.1477C237.311 51.6553 235.837 51.9091 234.17 51.9091ZM234.273 41.1136C235.053 41.1136 235.712 40.9205 236.25 40.5341C236.795 40.1402 237.212 39.5795 237.5 38.8523C237.795 38.1174 237.943 37.2386 237.943 36.2159C237.943 35.1932 237.799 34.3068 237.511 33.5568C237.223 32.7992 236.807 32.2121 236.261 31.7955C235.716 31.3788 235.053 31.1705 234.273 31.1705C233.477 31.1705 232.807 31.3864 232.261 31.8182C231.716 32.2424 231.303 32.8333 231.023 33.5909C230.742 34.3485 230.602 35.2235 230.602 36.2159C230.602 37.2235 230.742 38.0947 231.023 38.8295C231.311 39.5568 231.723 40.1212 232.261 40.5227C232.807 40.9167 233.477 41.1136 234.273 41.1136ZM251.398 34.9091V45H246.557V27.5455H251.17V30.625H251.375C251.761 29.6098 252.409 28.8068 253.318 28.2159C254.227 27.6174 255.33 27.3182 256.625 27.3182C257.837 27.3182 258.894 27.5833 259.795 28.1136C260.697 28.6439 261.398 29.4015 261.898 30.3864C262.398 31.3636 262.648 32.5303 262.648 33.8864V45H257.807V34.75C257.814 33.6818 257.542 32.8485 256.989 32.25C256.436 31.6439 255.674 31.3409 254.705 31.3409C254.053 31.3409 253.477 31.4811 252.977 31.7614C252.485 32.0417 252.098 32.4508 251.818 32.9886C251.545 33.5189 251.405 34.1591 251.398 34.9091Z" fill="black"/>
<path d="M27.7784 91H23.1378V77.9091H27.8168C29.1335 77.9091 30.267 78.1712 31.2173 78.6953C32.1676 79.2152 32.8984 79.9631 33.4098 80.9389C33.9254 81.9148 34.1832 83.0824 34.1832 84.4418C34.1832 85.8054 33.9254 86.9773 33.4098 87.9574C32.8984 88.9375 32.1634 89.6896 31.2045 90.2138C30.25 90.7379 29.108 91 27.7784 91ZM25.9055 88.6286H27.6634C28.4815 88.6286 29.1697 88.4837 29.728 88.1939C30.2905 87.8999 30.7124 87.446 30.9936 86.8324C31.2791 86.2145 31.4219 85.4176 31.4219 84.4418C31.4219 83.4744 31.2791 82.6839 30.9936 82.0703C30.7124 81.4567 30.2926 81.005 29.7344 80.7152C29.1761 80.4254 28.4879 80.2805 27.6697 80.2805H25.9055V88.6286ZM40.6568 91.1918C39.6468 91.1918 38.7775 90.9872 38.0488 90.5781C37.3244 90.1648 36.7662 89.581 36.3741 88.8267C35.9821 88.0682 35.786 87.1712 35.786 86.1357C35.786 85.1257 35.9821 84.2393 36.3741 83.4766C36.7662 82.7138 37.318 82.1193 38.0297 81.6932C38.7456 81.267 39.585 81.054 40.5481 81.054C41.1958 81.054 41.7988 81.1584 42.3571 81.3672C42.9196 81.5717 43.4096 81.8807 43.8272 82.294C44.2491 82.7074 44.5772 83.2273 44.8116 83.8537C45.046 84.4759 45.1632 85.2045 45.1632 86.0398V86.7876H36.8727V85.1001H42.6C42.6 84.7081 42.5147 84.3608 42.3443 84.0582C42.1738 83.7557 41.9373 83.5192 41.6348 83.3487C41.3365 83.174 40.9892 83.0866 40.5929 83.0866C40.1795 83.0866 39.813 83.1825 39.4934 83.3743C39.1781 83.5618 38.9309 83.8153 38.752 84.1349C38.573 84.4503 38.4814 84.8018 38.4771 85.1896V86.794C38.4771 87.2798 38.5666 87.6996 38.7456 88.0533C38.9288 88.407 39.1866 88.6797 39.519 88.8714C39.8514 89.0632 40.2456 89.1591 40.7015 89.1591C41.0041 89.1591 41.2811 89.1165 41.5325 89.0312C41.7839 88.946 41.9991 88.8182 42.1781 88.6477C42.3571 88.4773 42.4934 88.2685 42.5872 88.0213L45.1056 88.1875C44.9778 88.7926 44.7157 89.321 44.3194 89.7727C43.9274 90.2202 43.4203 90.5696 42.7981 90.821C42.1802 91.0682 41.4664 91.1918 40.6568 91.1918ZM52.22 81.1818V83.2273H46.1603V81.1818H52.22ZM47.5474 91V80.4723C47.5474 79.7607 47.6859 79.1705 47.9629 78.7017C48.2441 78.233 48.6277 77.8814 49.1135 77.647C49.5993 77.4126 50.1511 77.2955 50.769 77.2955C51.1866 77.2955 51.568 77.3274 51.9132 77.3913C52.2626 77.4553 52.5225 77.5128 52.693 77.5639L52.2072 79.6094C52.1007 79.5753 51.9686 79.5433 51.8109 79.5135C51.6575 79.4837 51.4998 79.4688 51.3379 79.4688C50.9373 79.4688 50.6582 79.5625 50.5005 79.75C50.3429 79.9332 50.264 80.1911 50.264 80.5234V91H47.5474ZM53.8835 91V81.1818H56.6065V91H53.8835ZM55.2514 79.9162C54.8466 79.9162 54.4993 79.782 54.2095 79.5135C53.924 79.2408 53.7812 78.9148 53.7812 78.5355C53.7812 78.1605 53.924 77.8388 54.2095 77.5703C54.4993 77.2976 54.8466 77.1612 55.2514 77.1612C55.6563 77.1612 56.0014 77.2976 56.2869 77.5703C56.5767 77.8388 56.7216 78.1605 56.7216 78.5355C56.7216 78.9148 56.5767 79.2408 56.2869 79.5135C56.0014 79.782 55.6563 79.9162 55.2514 79.9162ZM61.5108 85.3239V91H58.7878V81.1818H61.383V82.9141H61.498C61.7154 82.343 62.0797 81.8913 62.5911 81.5589C63.1025 81.2223 63.7225 81.054 64.4512 81.054C65.133 81.054 65.7275 81.2031 66.2346 81.5014C66.7417 81.7997 67.1358 82.2259 67.4171 82.7798C67.6983 83.3295 67.839 83.9858 67.839 84.7486V91H65.1159V85.2344C65.1202 84.6335 64.9668 84.1648 64.6557 83.8281C64.3446 83.4872 63.9164 83.3168 63.3709 83.3168C63.0044 83.3168 62.6806 83.3956 62.3993 83.5533C62.1223 83.7109 61.905 83.9411 61.7473 84.2436C61.5939 84.5419 61.5151 84.902 61.5108 85.3239ZM74.4595 91.1918C73.4496 91.1918 72.5803 90.9872 71.8516 90.5781C71.1271 90.1648 70.5689 89.581 70.1768 88.8267C69.7848 88.0682 69.5888 87.1712 69.5888 86.1357C69.5888 85.1257 69.7848 84.2393 70.1768 83.4766C70.5689 82.7138 71.1207 82.1193 71.8324 81.6932C72.5483 81.267 73.3878 81.054 74.3509 81.054C74.9986 81.054 75.6016 81.1584 76.1598 81.3672C76.7223 81.5717 77.2124 81.8807 77.63 82.294C78.0518 82.7074 78.38 83.2273 78.6143 83.8537C78.8487 84.4759 78.9659 85.2045 78.9659 86.0398V86.7876H70.6754V85.1001H76.4027C76.4027 84.7081 76.3175 84.3608 76.147 84.0582C75.9766 83.7557 75.7401 83.5192 75.4375 83.3487C75.1392 83.174 74.7919 83.0866 74.3956 83.0866C73.9822 83.0866 73.6158 83.1825 73.2962 83.3743C72.9808 83.5618 72.7337 83.8153 72.5547 84.1349C72.3757 84.4503 72.2841 84.8018 72.2798 85.1896V86.794C72.2798 87.2798 72.3693 87.6996 72.5483 88.0533C72.7315 88.407 72.9893 88.6797 73.3217 88.8714C73.6541 89.0632 74.0483 89.1591 74.5043 89.1591C74.8068 89.1591 75.0838 89.1165 75.3352 89.0312C75.5866 88.946 75.8018 88.8182 75.9808 88.6477C76.1598 88.4773 76.2962 88.2685 76.3899 88.0213L78.9084 88.1875C78.7805 88.7926 78.5185 89.321 78.1222 89.7727C77.7301 90.2202 77.223 90.5696 76.6009 90.821C75.983 91.0682 75.2692 91.1918 74.4595 91.1918ZM90.1312 81.1818V83.2273H84.2186V81.1818H90.1312ZM85.5609 78.8295H88.2839V87.983C88.2839 88.2344 88.3223 88.4304 88.399 88.571C88.4757 88.7074 88.5822 88.8033 88.7186 88.8587C88.8592 88.9141 89.0211 88.9418 89.2044 88.9418C89.3322 88.9418 89.46 88.9311 89.5879 88.9098C89.7157 88.8842 89.8137 88.8651 89.8819 88.8523L90.3102 90.8786C90.1738 90.9212 89.9821 90.9702 89.7349 91.0256C89.4877 91.0852 89.1873 91.1214 88.8336 91.1342C88.1774 91.1598 87.6021 91.0724 87.1078 90.8722C86.6177 90.6719 86.2363 90.3608 85.9636 89.9389C85.6909 89.517 85.5566 88.9844 85.5609 88.3409V78.8295ZM94.839 85.3239V91H92.1159V77.9091H94.7623V82.9141H94.8773C95.0989 82.3345 95.4569 81.8807 95.9512 81.5526C96.4455 81.2202 97.0655 81.054 97.8113 81.054C98.4931 81.054 99.0875 81.2031 99.5946 81.5014C100.106 81.7955 100.502 82.2195 100.784 82.7734C101.069 83.3232 101.21 83.9815 101.205 84.7486V91H98.4824V85.2344C98.4867 84.6293 98.3333 84.1584 98.0222 83.8217C97.7154 83.4851 97.285 83.3168 96.731 83.3168C96.3603 83.3168 96.0321 83.3956 95.7466 83.5533C95.4654 83.7109 95.2438 83.9411 95.0819 84.2436C94.9242 84.5419 94.8432 84.902 94.839 85.3239ZM107.823 91.1918C106.813 91.1918 105.944 90.9872 105.215 90.5781C104.49 90.1648 103.932 89.581 103.54 88.8267C103.148 88.0682 102.952 87.1712 102.952 86.1357C102.952 85.1257 103.148 84.2393 103.54 83.4766C103.932 82.7138 104.484 82.1193 105.196 81.6932C105.912 81.267 106.751 81.054 107.714 81.054C108.362 81.054 108.965 81.1584 109.523 81.3672C110.086 81.5717 110.576 81.8807 110.993 82.294C111.415 82.7074 111.743 83.2273 111.978 83.8537C112.212 84.4759 112.329 85.2045 112.329 86.0398V86.7876H104.039V85.1001H109.766C109.766 84.7081 109.681 84.3608 109.51 84.0582C109.34 83.7557 109.103 83.5192 108.801 83.3487C108.502 83.174 108.155 83.0866 107.759 83.0866C107.346 83.0866 106.979 83.1825 106.659 83.3743C106.344 83.5618 106.097 83.8153 105.918 84.1349C105.739 84.4503 105.647 84.8018 105.643 85.1896V86.794C105.643 87.2798 105.733 87.6996 105.912 88.0533C106.095 88.407 106.353 88.6797 106.685 88.8714C107.017 89.0632 107.412 89.1591 107.868 89.1591C108.17 89.1591 108.447 89.1165 108.699 89.0312C108.95 88.946 109.165 88.8182 109.344 88.6477C109.523 88.4773 109.659 88.2685 109.753 88.0213L112.272 88.1875C112.144 88.7926 111.882 89.321 111.485 89.7727C111.093 90.2202 110.586 90.5696 109.964 90.821C109.346 91.0682 108.632 91.1918 107.823 91.1918ZM126.441 83.9815L123.948 84.1349C123.906 83.9219 123.814 83.7301 123.673 83.5597C123.533 83.3849 123.347 83.2464 123.117 83.1442C122.892 83.0376 122.621 82.9844 122.306 82.9844C121.884 82.9844 121.528 83.0739 121.238 83.2528C120.948 83.4276 120.803 83.6619 120.803 83.956C120.803 84.1903 120.897 84.3885 121.085 84.5504C121.272 84.7124 121.594 84.8423 122.05 84.9403L123.827 85.2983C124.781 85.4943 125.493 85.8097 125.962 86.2443C126.431 86.679 126.665 87.25 126.665 87.9574C126.665 88.6009 126.475 89.1655 126.096 89.6513C125.721 90.1371 125.205 90.5163 124.549 90.7891C123.897 91.0575 123.145 91.1918 122.293 91.1918C120.993 91.1918 119.958 90.9212 119.186 90.38C118.419 89.8345 117.97 89.093 117.838 88.1555L120.516 88.0149C120.597 88.4112 120.793 88.7138 121.104 88.9226C121.415 89.1271 121.813 89.2294 122.299 89.2294C122.776 89.2294 123.16 89.1378 123.45 88.9545C123.744 88.767 123.893 88.5263 123.897 88.2322C123.893 87.9851 123.789 87.7827 123.584 87.625C123.379 87.4631 123.064 87.3395 122.638 87.2543L120.938 86.9155C119.979 86.7237 119.265 86.3913 118.796 85.9183C118.332 85.4453 118.1 84.8423 118.1 84.1094C118.1 83.4787 118.27 82.9354 118.611 82.4794C118.956 82.0234 119.44 81.6719 120.062 81.4247C120.688 81.1776 121.421 81.054 122.261 81.054C123.501 81.054 124.477 81.3161 125.188 81.8402C125.904 82.3643 126.322 83.0781 126.441 83.9815ZM133.602 81.1818V83.2273H127.689V81.1818H133.602ZM129.032 78.8295H131.755V87.983C131.755 88.2344 131.793 88.4304 131.87 88.571C131.946 88.7074 132.053 88.8033 132.189 88.8587C132.33 88.9141 132.492 88.9418 132.675 88.9418C132.803 88.9418 132.931 88.9311 133.059 88.9098C133.186 88.8842 133.284 88.8651 133.353 88.8523L133.781 90.8786C133.645 90.9212 133.453 90.9702 133.206 91.0256C132.958 91.0852 132.658 91.1214 132.304 91.1342C131.648 91.1598 131.073 91.0724 130.578 90.8722C130.088 90.6719 129.707 90.3608 129.434 89.9389C129.162 89.517 129.027 88.9844 129.032 88.3409V78.8295ZM137.057 94.6818C136.712 94.6818 136.388 94.6541 136.085 94.5987C135.787 94.5476 135.54 94.4815 135.344 94.4006L135.957 92.3679C136.277 92.4659 136.565 92.5192 136.82 92.5277C137.08 92.5362 137.304 92.4766 137.491 92.3487C137.683 92.2209 137.839 92.0036 137.958 91.6967L138.118 91.2812L134.596 81.1818H137.46L139.492 88.392H139.594L141.646 81.1818H144.529L140.713 92.0611C140.53 92.5895 140.281 93.0497 139.965 93.4418C139.654 93.8381 139.26 94.1428 138.783 94.3558C138.305 94.5732 137.73 94.6818 137.057 94.6818ZM148.646 77.9091V91H145.923V77.9091H148.646ZM155.301 91.1918C154.291 91.1918 153.422 90.9872 152.693 90.5781C151.969 90.1648 151.411 89.581 151.019 88.8267C150.627 88.0682 150.431 87.1712 150.431 86.1357C150.431 85.1257 150.627 84.2393 151.019 83.4766C151.411 82.7138 151.963 82.1193 152.674 81.6932C153.39 81.267 154.23 81.054 155.193 81.054C155.84 81.054 156.443 81.1584 157.002 81.3672C157.564 81.5717 158.054 81.8807 158.472 82.294C158.894 82.7074 159.222 83.2273 159.456 83.8537C159.691 84.4759 159.808 85.2045 159.808 86.0398V86.7876H151.517V85.1001H157.244C157.244 84.7081 157.159 84.3608 156.989 84.0582C156.818 83.7557 156.582 83.5192 156.279 83.3487C155.981 83.174 155.634 83.0866 155.237 83.0866C154.824 83.0866 154.458 83.1825 154.138 83.3743C153.823 83.5618 153.575 83.8153 153.396 84.1349C153.218 84.4503 153.126 84.8018 153.122 85.1896V86.794C153.122 87.2798 153.211 87.6996 153.39 88.0533C153.573 88.407 153.831 88.6797 154.164 88.8714C154.496 89.0632 154.89 89.1591 155.346 89.1591C155.649 89.1591 155.926 89.1165 156.177 89.0312C156.428 88.946 156.644 88.8182 156.823 88.6477C157.002 88.4773 157.138 88.2685 157.232 88.0213L159.75 88.1875C159.622 88.7926 159.36 89.321 158.964 89.7727C158.572 90.2202 158.065 90.5696 157.443 90.821C156.825 91.0682 156.111 91.1918 155.301 91.1918ZM170.174 94.8864C169.292 94.8864 168.536 94.7649 167.905 94.522C167.278 94.2834 166.78 93.9574 166.409 93.544C166.038 93.1307 165.798 92.6662 165.687 92.1506L168.205 91.8118C168.282 92.0078 168.403 92.1911 168.57 92.3615C168.736 92.532 168.955 92.6683 169.228 92.7706C169.505 92.8771 169.842 92.9304 170.238 92.9304C170.83 92.9304 171.318 92.7855 171.702 92.4957C172.089 92.2102 172.283 91.7308 172.283 91.0575V89.2614H172.168C172.049 89.5341 171.87 89.7919 171.631 90.0348C171.393 90.2777 171.086 90.4759 170.711 90.6293C170.336 90.7827 169.888 90.8594 169.369 90.8594C168.631 90.8594 167.96 90.6889 167.355 90.348C166.754 90.0028 166.275 89.4766 165.917 88.7692C165.563 88.0575 165.386 87.1584 165.386 86.0717C165.386 84.9595 165.567 84.0305 165.93 83.2848C166.292 82.5391 166.773 81.9808 167.374 81.6101C167.979 81.2393 168.642 81.054 169.362 81.054C169.912 81.054 170.372 81.1477 170.743 81.3352C171.114 81.5185 171.412 81.7486 171.638 82.0256C171.868 82.2983 172.045 82.5668 172.168 82.831H172.271V81.1818H174.974V91.0959C174.974 91.9311 174.77 92.63 174.361 93.1925C173.952 93.755 173.385 94.1768 172.661 94.4581C171.94 94.7436 171.112 94.8864 170.174 94.8864ZM170.232 88.8139C170.67 88.8139 171.041 88.7053 171.344 88.4879C171.651 88.2663 171.885 87.951 172.047 87.5419C172.213 87.1286 172.296 86.6342 172.296 86.0589C172.296 85.4837 172.215 84.9851 172.053 84.5632C171.891 84.1371 171.657 83.8068 171.35 83.5724C171.043 83.3381 170.67 83.2209 170.232 83.2209C169.784 83.2209 169.407 83.3423 169.1 83.5852C168.793 83.8239 168.561 84.1562 168.403 84.5824C168.246 85.0085 168.167 85.5007 168.167 86.0589C168.167 86.6257 168.246 87.1158 168.403 87.5291C168.565 87.9382 168.798 88.2557 169.1 88.4815C169.407 88.7031 169.784 88.8139 170.232 88.8139ZM183.438 86.8196V81.1818H186.161V91H183.546V89.2166H183.444C183.222 89.7919 182.854 90.2543 182.338 90.6037C181.827 90.9531 181.202 91.1278 180.465 91.1278C179.809 91.1278 179.232 90.9787 178.733 90.6804C178.234 90.3821 177.844 89.9581 177.563 89.4084C177.286 88.8587 177.146 88.2003 177.141 87.4332V81.1818H179.864V86.9474C179.869 87.527 180.024 87.9851 180.331 88.3217C180.638 88.6584 181.049 88.8267 181.565 88.8267C181.893 88.8267 182.2 88.7521 182.485 88.603C182.771 88.4496 183.001 88.2237 183.175 87.9254C183.354 87.6271 183.442 87.2585 183.438 86.8196ZM188.339 91V81.1818H191.062V91H188.339ZM189.706 79.9162C189.302 79.9162 188.954 79.782 188.665 79.5135C188.379 79.2408 188.236 78.9148 188.236 78.5355C188.236 78.1605 188.379 77.8388 188.665 77.5703C188.954 77.2976 189.302 77.1612 189.706 77.1612C190.111 77.1612 190.456 77.2976 190.742 77.5703C191.032 77.8388 191.177 78.1605 191.177 78.5355C191.177 78.9148 191.032 79.2408 190.742 79.5135C190.456 79.782 190.111 79.9162 189.706 79.9162ZM196.861 91.1598C196.115 91.1598 195.44 90.968 194.835 90.5845C194.234 90.1967 193.756 89.6278 193.403 88.8778C193.053 88.1236 192.879 87.1989 192.879 86.1037C192.879 84.9787 193.06 84.0433 193.422 83.2976C193.784 82.5476 194.266 81.9872 194.866 81.6165C195.472 81.2415 196.134 81.054 196.854 81.054C197.404 81.054 197.862 81.1477 198.229 81.3352C198.599 81.5185 198.898 81.7486 199.124 82.0256C199.354 82.2983 199.528 82.5668 199.648 82.831H199.731V77.9091H202.447V91H199.763V89.4276H199.648C199.52 89.7003 199.339 89.9709 199.104 90.2393C198.874 90.5036 198.574 90.723 198.203 90.8977C197.837 91.0724 197.389 91.1598 196.861 91.1598ZM197.724 88.9929C198.163 88.9929 198.533 88.8736 198.836 88.6349C199.143 88.392 199.377 88.0533 199.539 87.6186C199.705 87.1839 199.788 86.6747 199.788 86.0909C199.788 85.5071 199.707 85 199.545 84.5696C199.384 84.1392 199.149 83.8068 198.842 83.5724C198.536 83.3381 198.163 83.2209 197.724 83.2209C197.276 83.2209 196.899 83.3423 196.592 83.5852C196.286 83.8281 196.053 84.1648 195.896 84.5952C195.738 85.0256 195.659 85.5241 195.659 86.0909C195.659 86.6619 195.738 87.1669 195.896 87.6058C196.058 88.0405 196.29 88.3814 196.592 88.6286C196.899 88.8714 197.276 88.9929 197.724 88.9929ZM209.161 91.1918C208.151 91.1918 207.281 90.9872 206.553 90.5781C205.828 90.1648 205.27 89.581 204.878 88.8267C204.486 88.0682 204.29 87.1712 204.29 86.1357C204.29 85.1257 204.486 84.2393 204.878 83.4766C205.27 82.7138 205.822 82.1193 206.534 81.6932C207.249 81.267 208.089 81.054 209.052 81.054C209.7 81.054 210.303 81.1584 210.861 81.3672C211.423 81.5717 211.914 81.8807 212.331 82.294C212.753 82.7074 213.081 83.2273 213.316 83.8537C213.55 84.4759 213.667 85.2045 213.667 86.0398V86.7876H205.377V85.1001H211.104C211.104 84.7081 211.019 84.3608 210.848 84.0582C210.678 83.7557 210.441 83.5192 210.139 83.3487C209.84 83.174 209.493 83.0866 209.097 83.0866C208.683 83.0866 208.317 83.1825 207.997 83.3743C207.682 83.5618 207.435 83.8153 207.256 84.1349C207.077 84.4503 206.985 84.8018 206.981 85.1896V86.794C206.981 87.2798 207.07 87.6996 207.249 88.0533C207.433 88.407 207.691 88.6797 208.023 88.8714C208.355 89.0632 208.749 89.1591 209.205 89.1591C209.508 89.1591 209.785 89.1165 210.036 89.0312C210.288 88.946 210.503 88.8182 210.682 88.6477C210.861 88.4773 210.997 88.2685 211.091 88.0213L213.61 88.1875C213.482 88.7926 213.22 89.321 212.823 89.7727C212.431 90.2202 211.924 90.5696 211.302 90.821C210.684 91.0682 209.97 91.1918 209.161 91.1918ZM218.404 89.2102L218.333 89.9134C218.278 90.4759 218.171 91.0362 218.014 91.5945C217.86 92.157 217.698 92.6662 217.528 93.1222C217.362 93.5781 217.227 93.9361 217.125 94.196H215.361C215.425 93.9446 215.512 93.593 215.623 93.1413C215.734 92.6939 215.838 92.1911 215.936 91.6328C216.034 91.0746 216.096 90.5057 216.122 89.9261L216.154 89.2102H218.404ZM224.495 91V77.9091H227.218V82.831H227.301C227.421 82.5668 227.593 82.2983 227.819 82.0256C228.049 81.7486 228.347 81.5185 228.714 81.3352C229.085 81.1477 229.545 81.054 230.095 81.054C230.811 81.054 231.471 81.2415 232.076 81.6165C232.681 81.9872 233.165 82.5476 233.527 83.2976C233.889 84.0433 234.07 84.9787 234.07 86.1037C234.07 87.1989 233.894 88.1236 233.54 88.8778C233.191 89.6278 232.713 90.1967 232.108 90.5845C231.507 90.968 230.834 91.1598 230.088 91.1598C229.56 91.1598 229.11 91.0724 228.74 90.8977C228.373 90.723 228.073 90.5036 227.838 90.2393C227.604 89.9709 227.425 89.7003 227.301 89.4276H227.18V91H224.495ZM227.161 86.0909C227.161 86.6747 227.242 87.1839 227.404 87.6186C227.566 88.0533 227.8 88.392 228.107 88.6349C228.414 88.8736 228.786 88.9929 229.225 88.9929C229.669 88.9929 230.044 88.8714 230.35 88.6286C230.657 88.3814 230.889 88.0405 231.047 87.6058C231.209 87.1669 231.29 86.6619 231.29 86.0909C231.29 85.5241 231.211 85.0256 231.053 84.5952C230.896 84.1648 230.664 83.8281 230.357 83.5852C230.05 83.3423 229.673 83.2209 229.225 83.2209C228.782 83.2209 228.407 83.3381 228.1 83.5724C227.798 83.8068 227.566 84.1392 227.404 84.5696C227.242 85 227.161 85.5071 227.161 86.0909ZM235.887 91V81.1818H238.527V82.8949H238.63C238.809 82.2855 239.109 81.8253 239.531 81.5142C239.953 81.1989 240.439 81.0412 240.988 81.0412C241.125 81.0412 241.272 81.0497 241.429 81.0668C241.587 81.0838 241.725 81.1072 241.845 81.1371V83.5533C241.717 83.5149 241.54 83.4808 241.314 83.451C241.088 83.4212 240.882 83.4062 240.694 83.4062C240.294 83.4062 239.936 83.4936 239.62 83.6683C239.309 83.8388 239.062 84.0774 238.879 84.3842C238.7 84.6911 238.61 85.0447 238.61 85.4453V91H235.887ZM245.771 91.1854C245.145 91.1854 244.586 91.0767 244.096 90.8594C243.606 90.6378 243.219 90.3118 242.933 89.8814C242.652 89.4467 242.511 88.9055 242.511 88.2578C242.511 87.7124 242.611 87.2543 242.812 86.8835C243.012 86.5128 243.285 86.2145 243.63 85.9886C243.975 85.7628 244.367 85.5923 244.806 85.4773C245.249 85.3622 245.714 85.2812 246.199 85.2344C246.77 85.1747 247.231 85.1193 247.58 85.0682C247.93 85.0128 248.183 84.9318 248.341 84.8253C248.498 84.7187 248.577 84.5611 248.577 84.3523V84.3139C248.577 83.9091 248.449 83.5959 248.194 83.3743C247.942 83.1527 247.584 83.0419 247.12 83.0419C246.63 83.0419 246.24 83.1506 245.95 83.3679C245.66 83.581 245.469 83.8494 245.375 84.1733L242.856 83.9688C242.984 83.3722 243.236 82.8565 243.611 82.4219C243.986 81.983 244.469 81.6463 245.062 81.4119C245.658 81.1733 246.349 81.054 247.133 81.054C247.678 81.054 248.2 81.1179 248.699 81.2457C249.202 81.3736 249.647 81.5717 250.035 81.8402C250.427 82.1087 250.736 82.4538 250.961 82.8757C251.187 83.2933 251.3 83.794 251.3 84.3778V91H248.718V89.6385H248.641C248.483 89.9453 248.273 90.2159 248.008 90.4503C247.744 90.6804 247.427 90.8615 247.056 90.9936C246.685 91.1214 246.257 91.1854 245.771 91.1854ZM246.551 89.3061C246.952 89.3061 247.305 89.2273 247.612 89.0696C247.919 88.9077 248.16 88.6903 248.334 88.4176C248.509 88.1449 248.596 87.8359 248.596 87.4908V86.4489C248.511 86.5043 248.394 86.5554 248.245 86.6023C248.1 86.6449 247.936 86.6854 247.753 86.7237C247.569 86.7578 247.386 86.7898 247.203 86.8196C247.02 86.8452 246.854 86.8686 246.704 86.8899C246.385 86.9368 246.106 87.0114 245.867 87.1136C245.628 87.2159 245.443 87.3544 245.311 87.5291C245.179 87.6996 245.113 87.9126 245.113 88.1683C245.113 88.5391 245.247 88.8224 245.515 89.0185C245.788 89.2102 246.133 89.3061 246.551 89.3061ZM256.136 85.3239V91H253.413V81.1818H256.008V82.9141H256.123C256.34 82.343 256.705 81.8913 257.216 81.5589C257.727 81.2223 258.347 81.054 259.076 81.054C259.758 81.054 260.352 81.2031 260.86 81.5014C261.367 81.7997 261.761 82.2259 262.042 82.7798C262.323 83.3295 262.464 83.9858 262.464 84.7486V91H259.741V85.2344C259.745 84.6335 259.592 84.1648 259.281 83.8281C258.97 83.4872 258.541 83.3168 257.996 83.3168C257.629 83.3168 257.306 83.3956 257.024 83.5533C256.747 83.7109 256.53 83.9411 256.372 84.2436C256.219 84.5419 256.14 84.902 256.136 85.3239ZM268.228 91.1598C267.482 91.1598 266.807 90.968 266.202 90.5845C265.601 90.1967 265.124 89.6278 264.77 88.8778C264.42 88.1236 264.246 87.1989 264.246 86.1037C264.246 84.9787 264.427 84.0433 264.789 83.2976C265.151 82.5476 265.633 81.9872 266.234 81.6165C266.839 81.2415 267.501 81.054 268.222 81.054C268.771 81.054 269.229 81.1477 269.596 81.3352C269.967 81.5185 270.265 81.7486 270.491 82.0256C270.721 82.2983 270.896 82.5668 271.015 82.831H271.098V77.9091H273.815V91H271.13V89.4276H271.015C270.887 89.7003 270.706 89.9709 270.472 90.2393C270.241 90.5036 269.941 90.723 269.57 90.8977C269.204 91.0724 268.756 91.1598 268.228 91.1598ZM269.091 88.9929C269.53 88.9929 269.901 88.8736 270.203 88.6349C270.51 88.392 270.744 88.0533 270.906 87.6186C271.072 87.1839 271.156 86.6747 271.156 86.0909C271.156 85.5071 271.075 85 270.913 84.5696C270.751 84.1392 270.516 83.8068 270.21 83.5724C269.903 83.3381 269.53 83.2209 269.091 83.2209C268.643 83.2209 268.266 83.3423 267.96 83.5852C267.653 83.8281 267.42 84.1648 267.263 84.5952C267.105 85.0256 267.026 85.5241 267.026 86.0909C267.026 86.6619 267.105 87.1669 267.263 87.6058C267.425 88.0405 267.657 88.3814 267.96 88.6286C268.266 88.8714 268.643 88.9929 269.091 88.9929ZM276.053 91V81.1818H278.776V91H276.053ZM277.421 79.9162C277.017 79.9162 276.669 79.782 276.379 79.5135C276.094 79.2408 275.951 78.9148 275.951 78.5355C275.951 78.1605 276.094 77.8388 276.379 77.5703C276.669 77.2976 277.017 77.1612 277.421 77.1612C277.826 77.1612 278.171 77.2976 278.457 77.5703C278.747 77.8388 278.892 78.1605 278.892 78.5355C278.892 78.9148 278.747 79.2408 278.457 79.5135C278.171 79.782 277.826 79.9162 277.421 79.9162ZM283.681 85.3239V91H280.958V81.1818H283.553V82.9141H283.668C283.885 82.343 284.25 81.8913 284.761 81.5589C285.272 81.2223 285.892 81.054 286.621 81.054C287.303 81.054 287.897 81.2031 288.404 81.5014C288.912 81.7997 289.306 82.2259 289.587 82.7798C289.868 83.3295 290.009 83.9858 290.009 84.7486V91H287.286V85.2344C287.29 84.6335 287.137 84.1648 286.826 83.8281C286.515 83.4872 286.086 83.3168 285.541 83.3168C285.174 83.3168 284.85 83.3956 284.569 83.5533C284.292 83.7109 284.075 83.9411 283.917 84.2436C283.764 84.5419 283.685 84.902 283.681 85.3239ZM296.578 94.8864C295.696 94.8864 294.94 94.7649 294.309 94.522C293.683 94.2834 293.184 93.9574 292.813 93.544C292.443 93.1307 292.202 92.6662 292.091 92.1506L294.61 91.8118C294.686 92.0078 294.808 92.1911 294.974 92.3615C295.14 92.532 295.36 92.6683 295.632 92.7706C295.909 92.8771 296.246 92.9304 296.642 92.9304C297.235 92.9304 297.722 92.7855 298.106 92.4957C298.494 92.2102 298.688 91.7308 298.688 91.0575V89.2614H298.573C298.453 89.5341 298.274 89.7919 298.036 90.0348C297.797 90.2777 297.49 90.4759 297.115 90.6293C296.74 90.7827 296.293 90.8594 295.773 90.8594C295.036 90.8594 294.365 90.6889 293.759 90.348C293.159 90.0028 292.679 89.4766 292.321 88.7692C291.968 88.0575 291.791 87.1584 291.791 86.0717C291.791 84.9595 291.972 84.0305 292.334 83.2848C292.696 82.5391 293.178 81.9808 293.779 81.6101C294.384 81.2393 295.046 81.054 295.767 81.054C296.316 81.054 296.776 81.1477 297.147 81.3352C297.518 81.5185 297.816 81.7486 298.042 82.0256C298.272 82.2983 298.449 82.5668 298.573 82.831H298.675V81.1818H301.379V91.0959C301.379 91.9311 301.174 92.63 300.765 93.1925C300.356 93.755 299.789 94.1768 299.065 94.4581C298.345 94.7436 297.516 94.8864 296.578 94.8864ZM296.636 88.8139C297.075 88.8139 297.445 88.7053 297.748 88.4879C298.055 88.2663 298.289 87.951 298.451 87.5419C298.617 87.1286 298.7 86.6342 298.7 86.0589C298.7 85.4837 298.619 84.9851 298.458 84.5632C298.296 84.1371 298.061 83.8068 297.754 83.5724C297.448 83.3381 297.075 83.2209 296.636 83.2209C296.188 83.2209 295.811 83.3423 295.504 83.5852C295.198 83.8239 294.965 84.1562 294.808 84.5824C294.65 85.0085 294.571 85.5007 294.571 86.0589C294.571 86.6257 294.65 87.1158 294.808 87.5291C294.97 87.9382 295.202 88.2557 295.504 88.4815C295.811 88.7031 296.188 88.8139 296.636 88.8139ZM310.511 91.1854C309.885 91.1854 309.327 91.0767 308.837 90.8594C308.347 90.6378 307.959 90.3118 307.673 89.8814C307.392 89.4467 307.251 88.9055 307.251 88.2578C307.251 87.7124 307.352 87.2543 307.552 86.8835C307.752 86.5128 308.025 86.2145 308.37 85.9886C308.715 85.7628 309.107 85.5923 309.546 85.4773C309.989 85.3622 310.454 85.2812 310.94 85.2344C311.511 85.1747 311.971 85.1193 312.32 85.0682C312.67 85.0128 312.923 84.9318 313.081 84.8253C313.239 84.7187 313.317 84.5611 313.317 84.3523V84.3139C313.317 83.9091 313.19 83.5959 312.934 83.3743C312.683 83.1527 312.325 83.0419 311.86 83.0419C311.37 83.0419 310.98 83.1506 310.69 83.3679C310.401 83.581 310.209 83.8494 310.115 84.1733L307.597 83.9688C307.724 83.3722 307.976 82.8565 308.351 82.4219C308.726 81.983 309.21 81.6463 309.802 81.4119C310.398 81.1733 311.089 81.054 311.873 81.054C312.418 81.054 312.94 81.1179 313.439 81.2457C313.942 81.3736 314.387 81.5717 314.775 81.8402C315.167 82.1087 315.476 82.4538 315.702 82.8757C315.928 83.2933 316.04 83.794 316.04 84.3778V91H313.458V89.6385H313.381C313.224 89.9453 313.013 90.2159 312.749 90.4503C312.484 90.6804 312.167 90.8615 311.796 90.9936C311.425 91.1214 310.997 91.1854 310.511 91.1854ZM311.291 89.3061C311.692 89.3061 312.045 89.2273 312.352 89.0696C312.659 88.9077 312.9 88.6903 313.075 88.4176C313.249 88.1449 313.337 87.8359 313.337 87.4908V86.4489C313.251 86.5043 313.134 86.5554 312.985 86.6023C312.84 86.6449 312.676 86.6854 312.493 86.7237C312.31 86.7578 312.126 86.7898 311.943 86.8196C311.76 86.8452 311.594 86.8686 311.445 86.8899C311.125 86.9368 310.846 87.0114 310.607 87.1136C310.369 87.2159 310.183 87.3544 310.051 87.5291C309.919 87.6996 309.853 87.9126 309.853 88.1683C309.853 88.5391 309.987 88.8224 310.256 89.0185C310.528 89.2102 310.874 89.3061 311.291 89.3061ZM320.876 85.3239V91H318.153V81.1818H320.748V82.9141H320.863C321.081 82.343 321.445 81.8913 321.956 81.5589C322.468 81.2223 323.088 81.054 323.816 81.054C324.498 81.054 325.093 81.2031 325.6 81.5014C326.107 81.7997 326.501 82.2259 326.782 82.7798C327.064 83.3295 327.204 83.9858 327.204 84.7486V91H324.481V85.2344C324.485 84.6335 324.332 84.1648 324.021 83.8281C323.71 83.4872 323.282 83.3168 322.736 83.3168C322.37 83.3168 322.046 83.3956 321.765 83.5533C321.488 83.7109 321.27 83.9411 321.113 84.2436C320.959 84.5419 320.88 84.902 320.876 85.3239ZM332.968 91.1598C332.222 91.1598 331.547 90.968 330.942 90.5845C330.341 90.1967 329.864 89.6278 329.51 88.8778C329.161 88.1236 328.986 87.1989 328.986 86.1037C328.986 84.9787 329.167 84.0433 329.529 83.2976C329.892 82.5476 330.373 81.9872 330.974 81.6165C331.579 81.2415 332.242 81.054 332.962 81.054C333.512 81.054 333.97 81.1477 334.336 81.3352C334.707 81.5185 335.005 81.7486 335.231 82.0256C335.461 82.2983 335.636 82.5668 335.755 82.831H335.838V77.9091H338.555V91H335.87V89.4276H335.755C335.627 89.7003 335.446 89.9709 335.212 90.2393C334.982 90.5036 334.681 90.723 334.311 90.8977C333.944 91.0724 333.497 91.1598 332.968 91.1598ZM333.831 88.9929C334.27 88.9929 334.641 88.8736 334.943 88.6349C335.25 88.392 335.485 88.0533 335.646 87.6186C335.813 87.1839 335.896 86.6747 335.896 86.0909C335.896 85.5071 335.815 85 335.653 84.5696C335.491 84.1392 335.257 83.8068 334.95 83.5724C334.643 83.3381 334.27 83.2209 333.831 83.2209C333.384 83.2209 333.007 83.3423 332.7 83.5852C332.393 83.8281 332.161 84.1648 332.003 84.5952C331.845 85.0256 331.767 85.5241 331.767 86.0909C331.767 86.6619 331.845 87.1669 332.003 87.6058C332.165 88.0405 332.397 88.3814 332.7 88.6286C333.007 88.8714 333.384 88.9929 333.831 88.9929ZM349.396 91.1918C348.39 91.1918 347.525 90.9787 346.801 90.5526C346.08 90.1222 345.526 89.5256 345.139 88.7628C344.755 88 344.563 87.1222 344.563 86.1293C344.563 85.1236 344.757 84.2415 345.145 83.483C345.537 82.7202 346.093 82.1257 346.813 81.6996C347.534 81.2692 348.39 81.054 349.383 81.054C350.24 81.054 350.99 81.2095 351.633 81.5206C352.276 81.8317 352.786 82.2685 353.161 82.831C353.536 83.3935 353.742 84.054 353.781 84.8125H351.211C351.139 84.3224 350.947 83.9283 350.636 83.63C350.329 83.3274 349.926 83.1761 349.428 83.1761C349.006 83.1761 348.637 83.2912 348.322 83.5213C348.011 83.7472 347.768 84.0774 347.593 84.5121C347.419 84.9467 347.331 85.473 347.331 86.0909C347.331 86.7173 347.416 87.25 347.587 87.6889C347.762 88.1278 348.007 88.4624 348.322 88.6925C348.637 88.9226 349.006 89.0376 349.428 89.0376C349.739 89.0376 350.018 88.9737 350.265 88.8459C350.517 88.718 350.723 88.5327 350.885 88.2898C351.051 88.0426 351.16 87.7464 351.211 87.4013H353.781C353.738 88.1513 353.534 88.8118 353.167 89.3828C352.805 89.9496 352.304 90.3928 351.665 90.7124C351.026 91.032 350.269 91.1918 349.396 91.1918ZM355.524 91V81.1818H358.164V82.8949H358.266C358.445 82.2855 358.746 81.8253 359.168 81.5142C359.589 81.1989 360.075 81.0412 360.625 81.0412C360.761 81.0412 360.908 81.0497 361.066 81.0668C361.224 81.0838 361.362 81.1072 361.482 81.1371V83.5533C361.354 83.5149 361.177 83.4808 360.951 83.451C360.725 83.4212 360.518 83.4062 360.331 83.4062C359.93 83.4062 359.572 83.4936 359.257 83.6683C358.946 83.8388 358.699 84.0774 358.516 84.3842C358.337 84.6911 358.247 85.0447 358.247 85.4453V91H355.524ZM366.907 91.1918C365.897 91.1918 365.028 90.9872 364.299 90.5781C363.574 90.1648 363.016 89.581 362.624 88.8267C362.232 88.0682 362.036 87.1712 362.036 86.1357C362.036 85.1257 362.232 84.2393 362.624 83.4766C363.016 82.7138 363.568 82.1193 364.28 81.6932C364.996 81.267 365.835 81.054 366.798 81.054C367.446 81.054 368.049 81.1584 368.607 81.3672C369.17 81.5717 369.66 81.8807 370.077 82.294C370.499 82.7074 370.827 83.2273 371.062 83.8537C371.296 84.4759 371.413 85.2045 371.413 86.0398V86.7876H363.123V85.1001H368.85C368.85 84.7081 368.765 84.3608 368.594 84.0582C368.424 83.7557 368.187 83.5192 367.885 83.3487C367.586 83.174 367.239 83.0866 366.843 83.0866C366.43 83.0866 366.063 83.1825 365.743 83.3743C365.428 83.5618 365.181 83.8153 365.002 84.1349C364.823 84.4503 364.731 84.8018 364.727 85.1896V86.794C364.727 87.2798 364.817 87.6996 364.996 88.0533C365.179 88.407 365.437 88.6797 365.769 88.8714C366.101 89.0632 366.496 89.1591 366.952 89.1591C367.254 89.1591 367.531 89.1165 367.782 89.0312C368.034 88.946 368.249 88.8182 368.428 88.6477C368.607 88.4773 368.743 88.2685 368.837 88.0213L371.356 88.1875C371.228 88.7926 370.966 89.321 370.569 89.7727C370.177 90.2202 369.67 90.5696 369.048 90.821C368.43 91.0682 367.716 91.1918 366.907 91.1918ZM375.99 91.1854C375.363 91.1854 374.805 91.0767 374.315 90.8594C373.825 90.6378 373.437 90.3118 373.152 89.8814C372.871 89.4467 372.73 88.9055 372.73 88.2578C372.73 87.7124 372.83 87.2543 373.03 86.8835C373.231 86.5128 373.503 86.2145 373.849 85.9886C374.194 85.7628 374.586 85.5923 375.025 85.4773C375.468 85.3622 375.932 85.2812 376.418 85.2344C376.989 85.1747 377.449 85.1193 377.799 85.0682C378.148 85.0128 378.402 84.9318 378.559 84.8253C378.717 84.7187 378.796 84.5611 378.796 84.3523V84.3139C378.796 83.9091 378.668 83.5959 378.412 83.3743C378.161 83.1527 377.803 83.0419 377.339 83.0419C376.849 83.0419 376.459 83.1506 376.169 83.3679C375.879 83.581 375.687 83.8494 375.594 84.1733L373.075 83.9688C373.203 83.3722 373.454 82.8565 373.829 82.4219C374.204 81.983 374.688 81.6463 375.28 81.4119C375.877 81.1733 376.567 81.054 377.351 81.054C377.897 81.054 378.419 81.1179 378.917 81.2457C379.42 81.3736 379.866 81.5717 380.253 81.8402C380.645 82.1087 380.954 82.4538 381.18 82.8757C381.406 83.2933 381.519 83.794 381.519 84.3778V91H378.937V89.6385H378.86C378.702 89.9453 378.491 90.2159 378.227 90.4503C377.963 90.6804 377.645 90.8615 377.275 90.9936C376.904 91.1214 376.476 91.1854 375.99 91.1854ZM376.77 89.3061C377.17 89.3061 377.524 89.2273 377.831 89.0696C378.138 88.9077 378.378 88.6903 378.553 88.4176C378.728 88.1449 378.815 87.8359 378.815 87.4908V86.4489C378.73 86.5043 378.613 86.5554 378.464 86.6023C378.319 86.6449 378.155 86.6854 377.971 86.7237C377.788 86.7578 377.605 86.7898 377.422 86.8196C377.238 86.8452 377.072 86.8686 376.923 86.8899C376.604 86.9368 376.324 87.0114 376.086 87.1136C375.847 87.2159 375.662 87.3544 375.53 87.5291C375.398 87.6996 375.331 87.9126 375.331 88.1683C375.331 88.5391 375.466 88.8224 375.734 89.0185C376.007 89.2102 376.352 89.3061 376.77 89.3061ZM388.854 81.1818V83.2273H382.941V81.1818H388.854ZM384.284 78.8295H387.007V87.983C387.007 88.2344 387.045 88.4304 387.122 88.571C387.198 88.7074 387.305 88.8033 387.441 88.8587C387.582 88.9141 387.744 88.9418 387.927 88.9418C388.055 88.9418 388.183 88.9311 388.311 88.9098C388.438 88.8842 388.536 88.8651 388.605 88.8523L389.033 90.8786C388.896 90.9212 388.705 90.9702 388.458 91.0256C388.21 91.0852 387.91 91.1214 387.556 91.1342C386.9 91.1598 386.325 91.0724 385.83 90.8722C385.34 90.6719 384.959 90.3608 384.686 89.9389C384.414 89.517 384.279 88.9844 384.284 88.3409V78.8295ZM394.997 91.1918C393.987 91.1918 393.117 90.9872 392.389 90.5781C391.664 90.1648 391.106 89.581 390.714 88.8267C390.322 88.0682 390.126 87.1712 390.126 86.1357C390.126 85.1257 390.322 84.2393 390.714 83.4766C391.106 82.7138 391.658 82.1193 392.369 81.6932C393.085 81.267 393.925 81.054 394.888 81.054C395.536 81.054 396.139 81.1584 396.697 81.3672C397.259 81.5717 397.749 81.8807 398.167 82.294C398.589 82.7074 398.917 83.2273 399.151 83.8537C399.386 84.4759 399.503 85.2045 399.503 86.0398V86.7876H391.213V85.1001H396.94C396.94 84.7081 396.855 84.3608 396.684 84.0582C396.514 83.7557 396.277 83.5192 395.975 83.3487C395.676 83.174 395.329 83.0866 394.933 83.0866C394.519 83.0866 394.153 83.1825 393.833 83.3743C393.518 83.5618 393.271 83.8153 393.092 84.1349C392.913 84.4503 392.821 84.8018 392.817 85.1896V86.794C392.817 87.2798 392.906 87.6996 393.085 88.0533C393.269 88.407 393.526 88.6797 393.859 88.8714C394.191 89.0632 394.585 89.1591 395.041 89.1591C395.344 89.1591 395.621 89.1165 395.872 89.0312C396.124 88.946 396.339 88.8182 396.518 88.6477C396.697 88.4773 396.833 88.2685 396.927 88.0213L399.445 88.1875C399.318 88.7926 399.056 89.321 398.659 89.7727C398.267 90.2202 397.76 90.5696 397.138 90.821C396.52 91.0682 395.806 91.1918 394.997 91.1918ZM28.3089 103.182V105.227H22.3963V103.182H28.3089ZM23.7386 100.83H26.4616V109.983C26.4616 110.234 26.5 110.43 26.5767 110.571C26.6534 110.707 26.7599 110.803 26.8963 110.859C27.0369 110.914 27.1989 110.942 27.3821 110.942C27.5099 110.942 27.6378 110.931 27.7656 110.91C27.8935 110.884 27.9915 110.865 28.0597 110.852L28.4879 112.879C28.3516 112.921 28.1598 112.97 27.9126 113.026C27.6655 113.085 27.3651 113.121 27.0114 113.134C26.3551 113.16 25.7798 113.072 25.2855 112.872C24.7955 112.672 24.4141 112.361 24.1413 111.939C23.8686 111.517 23.7344 110.984 23.7386 110.341V100.83ZM33.0167 107.324V113H30.2937V99.9091H32.94V104.914H33.055C33.2766 104.335 33.6346 103.881 34.1289 103.553C34.6232 103.22 35.2433 103.054 35.989 103.054C36.6708 103.054 37.2653 103.203 37.7724 103.501C38.2837 103.795 38.68 104.219 38.9613 104.773C39.2468 105.323 39.3874 105.982 39.3832 106.749V113H36.6602V107.234C36.6644 106.629 36.511 106.158 36.1999 105.822C35.8931 105.485 35.4627 105.317 34.9087 105.317C34.538 105.317 34.2099 105.396 33.9244 105.553C33.6431 105.711 33.4215 105.941 33.2596 106.244C33.1019 106.542 33.021 106.902 33.0167 107.324ZM46.0005 113.192C44.9906 113.192 44.1213 112.987 43.3926 112.578C42.6681 112.165 42.1099 111.581 41.7179 110.827C41.3258 110.068 41.1298 109.171 41.1298 108.136C41.1298 107.126 41.3258 106.239 41.7179 105.477C42.1099 104.714 42.6618 104.119 43.3734 103.693C44.0893 103.267 44.9288 103.054 45.8919 103.054C46.5396 103.054 47.1426 103.158 47.7008 103.367C48.2633 103.572 48.7534 103.881 49.171 104.294C49.5929 104.707 49.921 105.227 50.1554 105.854C50.3897 106.476 50.5069 107.205 50.5069 108.04V108.788H42.2164V107.1H47.9437C47.9437 106.708 47.8585 106.361 47.688 106.058C47.5176 105.756 47.2811 105.519 46.9785 105.349C46.6802 105.174 46.3329 105.087 45.9366 105.087C45.5233 105.087 45.1568 105.183 44.8372 105.374C44.5218 105.562 44.2747 105.815 44.0957 106.135C43.9167 106.45 43.8251 106.802 43.8208 107.19V108.794C43.8208 109.28 43.9103 109.7 44.0893 110.053C44.2725 110.407 44.5304 110.68 44.8627 110.871C45.1951 111.063 45.5893 111.159 46.0453 111.159C46.3478 111.159 46.6248 111.116 46.8762 111.031C47.1277 110.946 47.3429 110.818 47.5218 110.648C47.7008 110.477 47.8372 110.268 47.9309 110.021L50.4494 110.188C50.3216 110.793 50.0595 111.321 49.6632 111.773C49.2711 112.22 48.764 112.57 48.1419 112.821C47.524 113.068 46.8102 113.192 46.0005 113.192ZM58.3867 113L55.7148 103.182H58.4698L59.9911 109.778H60.0806L61.6658 103.182H64.3697L65.9805 109.74H66.0636L67.5593 103.182H70.3079L67.6424 113H64.7596L63.0721 106.825H62.9506L61.2631 113H58.3867ZM75.9888 113.192C74.9789 113.192 74.1096 112.987 73.3809 112.578C72.6564 112.165 72.0982 111.581 71.7061 110.827C71.3141 110.068 71.1181 109.171 71.1181 108.136C71.1181 107.126 71.3141 106.239 71.7061 105.477C72.0982 104.714 72.65 104.119 73.3617 103.693C74.0776 103.267 74.9171 103.054 75.8801 103.054C76.5279 103.054 77.1309 103.158 77.6891 103.367C78.2516 103.572 78.7417 103.881 79.1593 104.294C79.5811 104.707 79.9093 105.227 80.1436 105.854C80.378 106.476 80.4952 107.205 80.4952 108.04V108.788H72.2047V107.1H77.932C77.932 106.708 77.8468 106.361 77.6763 106.058C77.5059 105.756 77.2694 105.519 76.9668 105.349C76.6685 105.174 76.3212 105.087 75.9249 105.087C75.5115 105.087 75.1451 105.183 74.8255 105.374C74.5101 105.562 74.263 105.815 74.084 106.135C73.905 106.45 73.8134 106.802 73.8091 107.19V108.794C73.8091 109.28 73.8986 109.7 74.0776 110.053C74.2608 110.407 74.5186 110.68 74.851 110.871C75.1834 111.063 75.5776 111.159 76.0336 111.159C76.3361 111.159 76.6131 111.116 76.8645 111.031C77.1159 110.946 77.3311 110.818 77.5101 110.648C77.6891 110.477 77.8255 110.268 77.9192 110.021L80.4377 110.188C80.3098 110.793 80.0478 111.321 79.6515 111.773C79.2594 112.22 78.7523 112.57 78.1301 112.821C77.5123 113.068 76.7985 113.192 75.9888 113.192ZM82.3233 113V99.9091H85.0463V104.831H85.1294C85.2488 104.567 85.4213 104.298 85.6472 104.026C85.8773 103.749 86.1756 103.518 86.5421 103.335C86.9128 103.148 87.373 103.054 87.9228 103.054C88.6387 103.054 89.2992 103.241 89.9043 103.616C90.5094 103.987 90.9931 104.548 91.3553 105.298C91.7175 106.043 91.8986 106.979 91.8986 108.104C91.8986 109.199 91.7218 110.124 91.3681 110.878C91.0186 111.628 90.5414 112.197 89.9363 112.585C89.3354 112.968 88.6621 113.16 87.9164 113.16C87.388 113.16 86.9384 113.072 86.5676 112.898C86.2012 112.723 85.9007 112.504 85.6664 112.239C85.432 111.971 85.253 111.7 85.1294 111.428H85.008V113H82.3233ZM84.9888 108.091C84.9888 108.675 85.0698 109.184 85.2317 109.619C85.3936 110.053 85.628 110.392 85.9348 110.635C86.2417 110.874 86.6145 110.993 87.0534 110.993C87.4966 110.993 87.8716 110.871 88.1784 110.629C88.4853 110.381 88.7175 110.04 88.8752 109.606C89.0371 109.167 89.1181 108.662 89.1181 108.091C89.1181 107.524 89.0392 107.026 88.8816 106.595C88.7239 106.165 88.4917 105.828 88.1848 105.585C87.878 105.342 87.5009 105.221 87.0534 105.221C86.6103 105.221 86.2353 105.338 85.9284 105.572C85.6259 105.807 85.3936 106.139 85.2317 106.57C85.0698 107 84.9888 107.507 84.9888 108.091ZM97.3335 113.16C96.5877 113.16 95.9123 112.968 95.3072 112.585C94.7063 112.197 94.229 111.628 93.8754 110.878C93.5259 110.124 93.3512 109.199 93.3512 108.104C93.3512 106.979 93.5323 106.043 93.8945 105.298C94.2567 104.548 94.7383 103.987 95.3391 103.616C95.9442 103.241 96.6069 103.054 97.3271 103.054C97.8768 103.054 98.3349 103.148 98.7013 103.335C99.0721 103.518 99.3704 103.749 99.5962 104.026C99.8263 104.298 100.001 104.567 100.12 104.831H100.203V99.9091H102.92V113H100.235V111.428H100.12C99.9925 111.7 99.8114 111.971 99.5771 112.239C99.3469 112.504 99.0465 112.723 98.6758 112.898C98.3093 113.072 97.8619 113.16 97.3335 113.16ZM98.1964 110.993C98.6353 110.993 99.006 110.874 99.3086 110.635C99.6154 110.392 99.8498 110.053 100.012 109.619C100.178 109.184 100.261 108.675 100.261 108.091C100.261 107.507 100.18 107 100.018 106.57C99.8562 106.139 99.6218 105.807 99.315 105.572C99.0082 105.338 98.6353 105.221 98.1964 105.221C97.7489 105.221 97.3718 105.342 97.065 105.585C96.7582 105.828 96.5259 106.165 96.3683 106.595C96.2106 107.026 96.1317 107.524 96.1317 108.091C96.1317 108.662 96.2106 109.167 96.3683 109.606C96.5302 110.04 96.7624 110.381 97.065 110.629C97.3718 110.871 97.7489 110.993 98.1964 110.993ZM109.633 113.192C108.623 113.192 107.754 112.987 107.025 112.578C106.301 112.165 105.743 111.581 105.351 110.827C104.959 110.068 104.763 109.171 104.763 108.136C104.763 107.126 104.959 106.239 105.351 105.477C105.743 104.714 106.295 104.119 107.006 103.693C107.722 103.267 108.562 103.054 109.525 103.054C110.172 103.054 110.775 103.158 111.334 103.367C111.896 103.572 112.386 103.881 112.804 104.294C113.226 104.707 113.554 105.227 113.788 105.854C114.023 106.476 114.14 107.205 114.14 108.04V108.788H105.849V107.1H111.577C111.577 106.708 111.491 106.361 111.321 106.058C111.15 105.756 110.914 105.519 110.611 105.349C110.313 105.174 109.966 105.087 109.569 105.087C109.156 105.087 108.79 105.183 108.47 105.374C108.155 105.562 107.907 105.815 107.729 106.135C107.55 106.45 107.458 106.802 107.454 107.19V108.794C107.454 109.28 107.543 109.7 107.722 110.053C107.905 110.407 108.163 110.68 108.496 110.871C108.828 111.063 109.222 111.159 109.678 111.159C109.981 111.159 110.258 111.116 110.509 111.031C110.76 110.946 110.976 110.818 111.155 110.648C111.334 110.477 111.47 110.268 111.564 110.021L114.082 110.188C113.954 110.793 113.692 111.321 113.296 111.773C112.904 112.22 112.397 112.57 111.775 112.821C111.157 113.068 110.443 113.192 109.633 113.192ZM124.086 105.982L121.593 106.135C121.55 105.922 121.459 105.73 121.318 105.56C121.177 105.385 120.992 105.246 120.762 105.144C120.536 105.038 120.265 104.984 119.95 104.984C119.528 104.984 119.172 105.074 118.883 105.253C118.593 105.428 118.448 105.662 118.448 105.956C118.448 106.19 118.542 106.388 118.729 106.55C118.917 106.712 119.238 106.842 119.694 106.94L121.471 107.298C122.426 107.494 123.138 107.81 123.606 108.244C124.075 108.679 124.309 109.25 124.309 109.957C124.309 110.601 124.12 111.165 123.741 111.651C123.366 112.137 122.85 112.516 122.194 112.789C121.542 113.058 120.79 113.192 119.937 113.192C118.638 113.192 117.602 112.921 116.831 112.38C116.064 111.835 115.614 111.093 115.482 110.156L118.16 110.015C118.241 110.411 118.437 110.714 118.748 110.923C119.059 111.127 119.458 111.229 119.944 111.229C120.421 111.229 120.805 111.138 121.094 110.955C121.388 110.767 121.537 110.526 121.542 110.232C121.537 109.985 121.433 109.783 121.229 109.625C121.024 109.463 120.709 109.339 120.282 109.254L118.582 108.915C117.623 108.724 116.91 108.391 116.441 107.918C115.976 107.445 115.744 106.842 115.744 106.109C115.744 105.479 115.915 104.935 116.256 104.479C116.601 104.023 117.084 103.672 117.706 103.425C118.333 103.178 119.066 103.054 119.905 103.054C121.145 103.054 122.121 103.316 122.833 103.84C123.549 104.364 123.966 105.078 124.086 105.982ZM126.024 113V103.182H128.747V113H126.024ZM127.392 101.916C126.987 101.916 126.64 101.782 126.35 101.513C126.065 101.241 125.922 100.915 125.922 100.536C125.922 100.161 126.065 99.8388 126.35 99.5703C126.64 99.2976 126.987 99.1612 127.392 99.1612C127.797 99.1612 128.142 99.2976 128.428 99.5703C128.717 99.8388 128.862 100.161 128.862 100.536C128.862 100.915 128.717 101.241 128.428 101.513C128.142 101.782 127.797 101.916 127.392 101.916ZM135.352 116.886C134.47 116.886 133.713 116.765 133.083 116.522C132.456 116.283 131.958 115.957 131.587 115.544C131.216 115.131 130.975 114.666 130.865 114.151L133.383 113.812C133.46 114.008 133.581 114.191 133.747 114.362C133.914 114.532 134.133 114.668 134.406 114.771C134.683 114.877 135.019 114.93 135.416 114.93C136.008 114.93 136.496 114.786 136.879 114.496C137.267 114.21 137.461 113.731 137.461 113.058V111.261H137.346C137.227 111.534 137.048 111.792 136.809 112.035C136.57 112.278 136.264 112.476 135.889 112.629C135.514 112.783 135.066 112.859 134.546 112.859C133.809 112.859 133.138 112.689 132.533 112.348C131.932 112.003 131.453 111.477 131.095 110.769C130.741 110.058 130.564 109.158 130.564 108.072C130.564 106.96 130.745 106.031 131.107 105.285C131.47 104.539 131.951 103.981 132.552 103.61C133.157 103.239 133.82 103.054 134.54 103.054C135.09 103.054 135.55 103.148 135.921 103.335C136.291 103.518 136.59 103.749 136.816 104.026C137.046 104.298 137.222 104.567 137.346 104.831H137.448V103.182H140.152V113.096C140.152 113.931 139.948 114.63 139.539 115.192C139.129 115.755 138.563 116.177 137.838 116.458C137.118 116.744 136.289 116.886 135.352 116.886ZM135.409 110.814C135.848 110.814 136.219 110.705 136.521 110.488C136.828 110.266 137.063 109.951 137.225 109.542C137.391 109.129 137.474 108.634 137.474 108.059C137.474 107.484 137.393 106.985 137.231 106.563C137.069 106.137 136.835 105.807 136.528 105.572C136.221 105.338 135.848 105.221 135.409 105.221C134.962 105.221 134.585 105.342 134.278 105.585C133.971 105.824 133.739 106.156 133.581 106.582C133.423 107.009 133.345 107.501 133.345 108.059C133.345 108.626 133.423 109.116 133.581 109.529C133.743 109.938 133.975 110.256 134.278 110.482C134.585 110.703 134.962 110.814 135.409 110.814ZM145.042 107.324V113H142.319V103.182H144.914V104.914H145.029C145.247 104.343 145.611 103.891 146.122 103.559C146.634 103.222 147.254 103.054 147.982 103.054C148.664 103.054 149.259 103.203 149.766 103.501C150.273 103.8 150.667 104.226 150.948 104.78C151.23 105.33 151.37 105.986 151.37 106.749V113H148.647V107.234C148.651 106.634 148.498 106.165 148.187 105.828C147.876 105.487 147.448 105.317 146.902 105.317C146.536 105.317 146.212 105.396 145.931 105.553C145.654 105.711 145.436 105.941 145.279 106.244C145.125 106.542 145.046 106.902 145.042 107.324ZM162.118 113.192C161.126 113.192 160.267 112.981 159.542 112.559C158.822 112.133 158.266 111.54 157.874 110.782C157.482 110.019 157.286 109.135 157.286 108.129C157.286 107.115 157.482 106.229 157.874 105.47C158.266 104.707 158.822 104.115 159.542 103.693C160.267 103.267 161.126 103.054 162.118 103.054C163.111 103.054 163.968 103.267 164.688 103.693C165.412 104.115 165.971 104.707 166.363 105.47C166.755 106.229 166.951 107.115 166.951 108.129C166.951 109.135 166.755 110.019 166.363 110.782C165.971 111.54 165.412 112.133 164.688 112.559C163.968 112.981 163.111 113.192 162.118 113.192ZM162.131 111.082C162.583 111.082 162.96 110.955 163.263 110.699C163.565 110.439 163.793 110.085 163.947 109.638C164.104 109.19 164.183 108.681 164.183 108.11C164.183 107.539 164.104 107.03 163.947 106.582C163.793 106.135 163.565 105.781 163.263 105.521C162.96 105.261 162.583 105.131 162.131 105.131C161.675 105.131 161.292 105.261 160.981 105.521C160.674 105.781 160.442 106.135 160.284 106.582C160.131 107.03 160.054 107.539 160.054 108.11C160.054 108.681 160.131 109.19 160.284 109.638C160.442 110.085 160.674 110.439 160.981 110.699C161.292 110.955 161.675 111.082 162.131 111.082ZM171.444 107.324V113H168.721V103.182H171.317V104.914H171.432C171.649 104.343 172.013 103.891 172.525 103.559C173.036 103.222 173.656 103.054 174.385 103.054C175.067 103.054 175.661 103.203 176.168 103.501C176.675 103.8 177.069 104.226 177.351 104.78C177.632 105.33 177.773 105.986 177.773 106.749V113H175.05V107.234C175.054 106.634 174.9 106.165 174.589 105.828C174.278 105.487 173.85 105.317 173.305 105.317C172.938 105.317 172.614 105.396 172.333 105.553C172.056 105.711 171.839 105.941 171.681 106.244C171.528 106.542 171.449 106.902 171.444 107.324ZM184.136 113V99.9091H192.803V102.191H186.904V105.31H192.228V107.592H186.904V113H184.136ZM194.614 113V103.182H197.337V113H194.614ZM195.982 101.916C195.577 101.916 195.23 101.782 194.94 101.513C194.654 101.241 194.512 100.915 194.512 100.536C194.512 100.161 194.654 99.8388 194.94 99.5703C195.23 99.2976 195.577 99.1612 195.982 99.1612C196.387 99.1612 196.732 99.2976 197.017 99.5703C197.307 99.8388 197.452 100.161 197.452 100.536C197.452 100.915 197.307 101.241 197.017 101.513C196.732 101.782 196.387 101.916 195.982 101.916ZM203.942 116.886C203.059 116.886 202.303 116.765 201.672 116.522C201.046 116.283 200.547 115.957 200.177 115.544C199.806 115.131 199.565 114.666 199.454 114.151L201.973 113.812C202.05 114.008 202.171 114.191 202.337 114.362C202.503 114.532 202.723 114.668 202.996 114.771C203.273 114.877 203.609 114.93 204.006 114.93C204.598 114.93 205.086 114.786 205.469 114.496C205.857 114.21 206.051 113.731 206.051 113.058V111.261H205.936C205.817 111.534 205.638 111.792 205.399 112.035C205.16 112.278 204.854 112.476 204.479 112.629C204.104 112.783 203.656 112.859 203.136 112.859C202.399 112.859 201.728 112.689 201.123 112.348C200.522 112.003 200.042 111.477 199.684 110.769C199.331 110.058 199.154 109.158 199.154 108.072C199.154 106.96 199.335 106.031 199.697 105.285C200.059 104.539 200.541 103.981 201.142 103.61C201.747 103.239 202.41 103.054 203.13 103.054C203.68 103.054 204.14 103.148 204.51 103.335C204.881 103.518 205.18 103.749 205.405 104.026C205.635 104.298 205.812 104.567 205.936 104.831H206.038V103.182H208.742V113.096C208.742 113.931 208.537 114.63 208.128 115.192C207.719 115.755 207.153 116.177 206.428 116.458C205.708 116.744 204.879 116.886 203.942 116.886ZM203.999 110.814C204.438 110.814 204.809 110.705 205.111 110.488C205.418 110.266 205.653 109.951 205.814 109.542C205.981 109.129 206.064 108.634 206.064 108.059C206.064 107.484 205.983 106.985 205.821 106.563C205.659 106.137 205.425 105.807 205.118 105.572C204.811 105.338 204.438 105.221 203.999 105.221C203.552 105.221 203.175 105.342 202.868 105.585C202.561 105.824 202.329 106.156 202.171 106.582C202.013 107.009 201.934 107.501 201.934 108.059C201.934 108.626 202.013 109.116 202.171 109.529C202.333 109.938 202.565 110.256 202.868 110.482C203.175 110.703 203.552 110.814 203.999 110.814ZM210.909 113V103.182H213.504V104.914H213.619C213.824 104.339 214.165 103.885 214.642 103.553C215.119 103.22 215.69 103.054 216.355 103.054C217.028 103.054 217.601 103.222 218.074 103.559C218.547 103.891 218.863 104.343 219.02 104.914H219.123C219.323 104.352 219.685 103.902 220.209 103.565C220.738 103.224 221.362 103.054 222.082 103.054C222.998 103.054 223.742 103.346 224.313 103.93C224.888 104.509 225.176 105.332 225.176 106.397V113H222.459V106.934C222.459 106.388 222.314 105.979 222.025 105.707C221.735 105.434 221.373 105.298 220.938 105.298C220.444 105.298 220.058 105.455 219.781 105.771C219.504 106.082 219.366 106.493 219.366 107.004V113H216.726V106.876C216.726 106.395 216.587 106.011 216.31 105.726C216.037 105.44 215.677 105.298 215.23 105.298C214.927 105.298 214.655 105.374 214.412 105.528C214.173 105.677 213.983 105.888 213.843 106.161C213.702 106.429 213.632 106.744 213.632 107.107V113H210.909ZM230.127 113.185C229.5 113.185 228.942 113.077 228.452 112.859C227.962 112.638 227.574 112.312 227.289 111.881C227.007 111.447 226.867 110.906 226.867 110.258C226.867 109.712 226.967 109.254 227.167 108.884C227.367 108.513 227.64 108.214 227.985 107.989C228.33 107.763 228.722 107.592 229.161 107.477C229.605 107.362 230.069 107.281 230.555 107.234C231.126 107.175 231.586 107.119 231.936 107.068C232.285 107.013 232.539 106.932 232.696 106.825C232.854 106.719 232.933 106.561 232.933 106.352V106.314C232.933 105.909 232.805 105.596 232.549 105.374C232.298 105.153 231.94 105.042 231.475 105.042C230.985 105.042 230.595 105.151 230.306 105.368C230.016 105.581 229.824 105.849 229.73 106.173L227.212 105.969C227.34 105.372 227.591 104.857 227.966 104.422C228.341 103.983 228.825 103.646 229.417 103.412C230.014 103.173 230.704 103.054 231.488 103.054C232.034 103.054 232.556 103.118 233.054 103.246C233.557 103.374 234.002 103.572 234.39 103.84C234.782 104.109 235.091 104.454 235.317 104.876C235.543 105.293 235.656 105.794 235.656 106.378V113H233.073V111.638H232.997C232.839 111.945 232.628 112.216 232.364 112.45C232.1 112.68 231.782 112.862 231.411 112.994C231.041 113.121 230.612 113.185 230.127 113.185ZM230.906 111.306C231.307 111.306 231.661 111.227 231.968 111.07C232.274 110.908 232.515 110.69 232.69 110.418C232.865 110.145 232.952 109.836 232.952 109.491V108.449C232.867 108.504 232.749 108.555 232.6 108.602C232.455 108.645 232.291 108.685 232.108 108.724C231.925 108.758 231.742 108.79 231.558 108.82C231.375 108.845 231.209 108.869 231.06 108.89C230.74 108.937 230.461 109.011 230.222 109.114C229.984 109.216 229.798 109.354 229.666 109.529C229.534 109.7 229.468 109.913 229.468 110.168C229.468 110.539 229.602 110.822 229.871 111.018C230.144 111.21 230.489 111.306 230.906 111.306ZM239.36 113.166C238.938 113.166 238.576 113.017 238.273 112.719C237.975 112.416 237.826 112.054 237.826 111.632C237.826 111.214 237.975 110.857 238.273 110.558C238.576 110.26 238.938 110.111 239.36 110.111C239.769 110.111 240.127 110.26 240.434 110.558C240.741 110.857 240.894 111.214 240.894 111.632C240.894 111.913 240.822 112.171 240.677 112.406C240.536 112.636 240.351 112.821 240.121 112.962C239.89 113.098 239.637 113.166 239.36 113.166Z" fill="black"/>
<path d="M539.639 156.191V153.909H550.391V156.191H546.383V167H543.647V156.191H539.639ZM555.122 167.192C554.129 167.192 553.271 166.981 552.546 166.559C551.826 166.133 551.27 165.54 550.878 164.782C550.486 164.019 550.29 163.135 550.29 162.129C550.29 161.115 550.486 160.229 550.878 159.47C551.27 158.707 551.826 158.115 552.546 157.693C553.271 157.267 554.129 157.054 555.122 157.054C556.115 157.054 556.972 157.267 557.692 157.693C558.416 158.115 558.975 158.707 559.367 159.47C559.759 160.229 559.955 161.115 559.955 162.129C559.955 163.135 559.759 164.019 559.367 164.782C558.975 165.54 558.416 166.133 557.692 166.559C556.972 166.981 556.115 167.192 555.122 167.192ZM555.135 165.082C555.587 165.082 555.964 164.955 556.267 164.699C556.569 164.439 556.797 164.085 556.95 163.638C557.108 163.19 557.187 162.681 557.187 162.11C557.187 161.539 557.108 161.03 556.95 160.582C556.797 160.135 556.569 159.781 556.267 159.521C555.964 159.261 555.587 159.131 555.135 159.131C554.679 159.131 554.296 159.261 553.985 159.521C553.678 159.781 553.445 160.135 553.288 160.582C553.134 161.03 553.058 161.539 553.058 162.11C553.058 162.681 553.134 163.19 553.288 163.638C553.445 164.085 553.678 164.439 553.985 164.699C554.296 164.955 554.679 165.082 555.135 165.082ZM567.843 160.544V162.705H561.872V160.544H567.843ZM574.855 167H570.214V153.909H574.893C576.21 153.909 577.343 154.171 578.294 154.695C579.244 155.215 579.975 155.963 580.486 156.939C581.002 157.915 581.259 159.082 581.259 160.442C581.259 161.805 581.002 162.977 580.486 163.957C579.975 164.937 579.24 165.69 578.281 166.214C577.326 166.738 576.184 167 574.855 167ZM572.982 164.629H574.74C575.558 164.629 576.246 164.484 576.804 164.194C577.367 163.9 577.789 163.446 578.07 162.832C578.355 162.214 578.498 161.418 578.498 160.442C578.498 159.474 578.355 158.684 578.07 158.07C577.789 157.457 577.369 157.005 576.811 156.715C576.252 156.425 575.564 156.281 574.746 156.281H572.982V164.629ZM587.695 167.192C586.702 167.192 585.843 166.981 585.119 166.559C584.398 166.133 583.842 165.54 583.45 164.782C583.058 164.019 582.862 163.135 582.862 162.129C582.862 161.115 583.058 160.229 583.45 159.47C583.842 158.707 584.398 158.115 585.119 157.693C585.843 157.267 586.702 157.054 587.695 157.054C588.688 157.054 589.544 157.267 590.264 157.693C590.989 158.115 591.547 158.707 591.939 159.47C592.331 160.229 592.527 161.115 592.527 162.129C592.527 163.135 592.331 164.019 591.939 164.782C591.547 165.54 590.989 166.133 590.264 166.559C589.544 166.981 588.688 167.192 587.695 167.192ZM587.707 165.082C588.159 165.082 588.536 164.955 588.839 164.699C589.141 164.439 589.369 164.085 589.523 163.638C589.68 163.19 589.759 162.681 589.759 162.11C589.759 161.539 589.68 161.03 589.523 160.582C589.369 160.135 589.141 159.781 588.839 159.521C588.536 159.261 588.159 159.131 587.707 159.131C587.251 159.131 586.868 159.261 586.557 159.521C586.25 159.781 586.018 160.135 585.86 160.582C585.707 161.03 585.63 161.539 585.63 162.11C585.63 162.681 585.707 163.19 585.86 163.638C586.018 164.085 586.25 164.439 586.557 164.699C586.868 164.955 587.251 165.082 587.707 165.082Z" fill="black"/>
<path d="M522 150.5C527.271 150.5 531.5 154.553 531.5 159.5C531.5 164.447 527.271 168.5 522 168.5C516.729 168.5 512.5 164.447 512.5 159.5C512.5 154.553 516.729 150.5 522 150.5Z" fill="white" stroke="black"/>
</svg>
