<svg width="1440" height="1024" viewBox="0 0 1440 1024" fill="none" xmlns="http://www.w3.org/2000/svg">
<g clip-path="url(#clip0_180_4)">
<rect width="1440" height="1024" fill="#9EBEF1"/>
<rect x="1205" y="359.374" width="398" height="61.9608" rx="24" transform="rotate(-49 1205 359.374)" fill="#FFE45E"/>
<rect x="871" y="771.374" width="398" height="61.9608" rx="24" transform="rotate(-49 871 771.374)" fill="#FFE45E"/>
<rect x="1179" y="189.374" width="398" height="61.9608" rx="24" transform="rotate(-49 1179 189.374)" fill="#FF6392"/>
<rect x="1312" y="455.374" width="398" height="61.9608" rx="24" transform="rotate(-49 1312 455.374)" fill="#FF6392"/>
<rect x="734" y="179.337" width="237.624" height="61.9608" rx="24" transform="rotate(-49 734 179.337)" fill="#FFE45E"/>
<rect x="820" y="1057.34" width="237.624" height="61.9608" rx="24" transform="rotate(-49 820 1057.34)" fill="#FFE45E"/>
<path d="M1253.33 713L1244.17 722.167L1240 718" stroke="#FEE9E7" stroke-width="2" stroke-linecap="round" stroke-linejoin="round"/>
<rect x="127.395" y="261.261" width="398" height="61.9608" rx="24" transform="rotate(-49 127.395 261.261)" fill="#5689DA"/>
<rect x="781" y="455.374" width="398" height="61.9608" rx="24" transform="rotate(-49 781 455.374)" fill="#5689DA"/>
<rect x="1031" y="928.374" width="398" height="61.9608" rx="24" transform="rotate(-49 1031 928.374)" fill="#5689DA"/>
<rect x="1200" y="917.175" width="210.908" height="61.9608" rx="24" transform="rotate(-49 1200 917.175)" fill="#5689DA"/>
<rect x="563" y="205.175" width="210.908" height="61.9608" rx="24" transform="rotate(-49 563 205.175)" fill="#5689DA"/>
<rect x="16" y="508.175" width="210.908" height="61.9608" rx="24" transform="rotate(-49 16 508.175)" fill="#5689DA"/>
<rect y="928.374" width="398" height="61.9608" rx="24" transform="rotate(-49 0 928.374)" fill="#FFE45E"/>
<rect x="174" y="1117.37" width="398" height="61.9608" rx="24" transform="rotate(-49 174 1117.37)" fill="#FFE45E"/>
<rect x="473" y="1081.37" width="398" height="61.9608" rx="24" transform="rotate(-49 473 1081.37)" fill="#FF6392"/>
<rect x="261" y="842.374" width="398" height="61.9608" rx="24" transform="rotate(-49 261 842.374)" fill="#FF6392"/>
</g>
<defs>
<clipPath id="clip0_180_4">
<rect width="1440" height="1024" fill="white"/>
</clipPath>
</defs>
</svg>
