<svg width="39" height="39" viewBox="0 0 39 39" fill="none" xmlns="http://www.w3.org/2000/svg">
<path d="M4.875 34.125V27.2188L26.325 5.80937C26.65 5.51146 27.0089 5.28125 27.4016 5.11875C27.7943 4.95625 28.2073 4.875 28.6406 4.875C29.074 4.875 29.4938 4.95625 29.9 5.11875C30.3063 5.28125 30.6583 5.525 30.9563 5.85L33.1906 8.125C33.5156 8.42292 33.7526 8.775 33.9016 9.18125C34.0505 9.5875 34.125 9.99375 34.125 10.4C34.125 10.8333 34.0505 11.2464 33.9016 11.6391C33.7526 12.0318 33.5156 12.3906 33.1906 12.7156L11.7812 34.125H4.875ZM28.6 12.675L30.875 10.4L28.6 8.125L26.325 10.4L28.6 12.675Z" fill="#1D1B20"/>
</svg>
