<svg width="39" height="41" viewBox="0 0 39 41" fill="none" xmlns="http://www.w3.org/2000/svg">
<path d="M14.625 32.4584C6.5 35.0209 6.5 28.1875 3.25 27.3334M26 37.5834V30.9721C26.061 30.1575 25.9563 29.3386 25.6929 28.5698C25.4295 27.8011 25.0135 27.1 24.4725 26.5134C29.575 25.9155 34.9375 23.8825 34.9375 14.555C34.9371 12.1699 34.0644 9.87625 32.5 8.14879C33.2408 6.06207 33.1884 3.75555 32.3537 1.70837C32.3537 1.70837 30.4363 1.11045 26 4.2367C22.2755 3.17552 18.3495 3.17552 14.625 4.2367C10.1887 1.11045 8.27125 1.70837 8.27125 1.70837C7.43661 3.75555 7.38423 6.06207 8.125 8.14879C6.54896 9.88906 5.67535 12.2035 5.6875 14.6063C5.6875 23.8655 11.05 25.8984 16.1525 26.5646C15.6179 27.1454 15.2056 27.838 14.9424 28.5974C14.6792 29.3568 14.5711 30.1659 14.625 30.9721V37.5834" stroke="#1E1E1E" stroke-width="2.5" stroke-linecap="round" stroke-linejoin="round"/>
</svg>
