<svg width="454" height="391" viewBox="0 0 454 391" fill="none" xmlns="http://www.w3.org/2000/svg">
<path d="M349.468 117.594C349.606 117.059 349.285 116.514 348.75 116.375C348.216 116.237 347.67 116.558 347.532 117.093L348.5 117.344L349.468 117.594ZM429.083 390.069C429.304 390.575 429.893 390.807 430.399 390.586L438.65 386.99C439.156 386.77 439.388 386.18 439.167 385.674C438.946 385.168 438.357 384.936 437.851 385.157L430.517 388.353L427.321 381.019C427.1 380.513 426.511 380.281 426.005 380.502C425.498 380.723 425.267 381.312 425.487 381.818L429.083 390.069ZM348.5 117.344L347.532 117.093C335.502 163.583 340.236 189.632 353.056 206.041C359.447 214.22 367.785 219.919 376.85 224.554C385.89 229.177 395.763 232.792 405.157 236.719C424.035 244.61 441.187 253.84 448.143 275.33C455.133 296.925 451.918 331.155 429.069 389.304L430 389.669L430.931 390.035C453.806 331.82 457.265 297.015 450.046 274.715C442.794 252.31 424.856 242.786 405.928 234.874C396.419 230.899 386.71 227.35 377.761 222.774C368.836 218.21 360.776 212.674 354.632 204.809C342.382 189.13 337.498 163.854 349.468 117.594L348.5 117.344Z" fill="black"/>
<path d="M349.494 80.2325C349.555 80.7814 349.16 81.276 348.611 81.3373C348.062 81.3986 347.567 81.0033 347.506 80.4545L348.5 80.3435L349.494 80.2325ZM0.600708 68.5919C0.0944214 68.3713 -0.137115 67.782 0.0835266 67.2757L3.67923 59.0252C3.89987 58.5189 4.48917 58.2873 4.99545 58.508C5.50174 58.7286 5.73331 59.3179 5.51266 59.8242L2.3165 67.158L9.65027 70.3542C10.1566 70.5748 10.3881 71.1641 10.1675 71.6704C9.94684 72.1767 9.35754 72.4083 8.85123 72.1876L0.600708 68.5919ZM348.5 80.3435L347.506 80.4545C344.649 54.866 336.111 35.748 321.418 22.8015C306.717 9.84801 285.715 2.94843 257.68 2.09117C201.559 0.375107 117.732 22.8815 1.36597 68.6059L1.00024 67.6752L0.634521 66.7445C116.996 21.0217 201.168 -1.63779 257.741 0.0921021C286.052 0.957825 307.57 7.93417 322.74 21.3009C337.918 34.6745 346.601 54.321 349.494 80.2325L348.5 80.3435Z" fill="black"/>
</svg>
