<svg width="500" height="399" viewBox="0 0 500 399" fill="none" xmlns="http://www.w3.org/2000/svg">
<path d="M357.343 195.353C357.252 194.808 356.736 194.44 356.192 194.531C355.647 194.622 355.279 195.138 355.37 195.682L356.356 195.518L357.343 195.353ZM493.869 398.873C494.351 399.142 494.96 398.97 495.23 398.488L499.623 390.633C499.892 390.151 499.72 389.542 499.238 389.272C498.756 389.002 498.147 389.175 497.877 389.657L493.972 396.639L486.99 392.734C486.508 392.465 485.899 392.637 485.629 393.119C485.359 393.601 485.532 394.21 486.014 394.48L493.869 398.873ZM356.356 195.518L355.37 195.682C361.259 230.928 369.957 251.079 380.52 263.995C391.088 276.917 403.452 282.495 416.296 288.717C429.141 294.941 442.577 301.85 455.718 317.389C468.875 332.947 481.792 357.226 493.395 398.272L494.357 398L495.319 397.728C483.672 356.523 470.651 331.95 457.246 316.098C443.824 300.227 430.073 293.17 417.168 286.918C404.261 280.664 392.313 275.256 382.068 262.729C371.819 250.196 363.204 230.436 357.343 195.353L356.356 195.518Z" fill="black"/>
<path d="M357.35 158.407C357.412 158.956 357.016 159.45 356.468 159.511C355.919 159.573 355.424 159.177 355.363 158.629L356.357 158.518L357.35 158.407ZM9.17435 81.2502C8.85623 81.7016 8.23236 81.8097 7.78091 81.4916L0.424042 76.3073C-0.0274048 75.9891 -0.135468 75.3653 0.182648 74.9138C0.500793 74.4624 1.12466 74.3543 1.57611 74.6724L8.11554 79.2807L12.7238 72.7413C13.0419 72.2898 13.6658 72.1817 14.1172 72.4999C14.5687 72.818 14.6768 73.4419 14.3586 73.8933L9.17435 81.2502ZM356.357 158.518L355.363 158.629C353.955 146.02 347.097 132.62 336.096 119.13C325.104 105.65 310.033 92.1532 292.326 79.3593C256.911 53.7711 211.055 31.0703 166.493 16.9837C121.89 2.88419 78.7674 -2.52693 48.7391 6.25432C33.7578 10.6354 22.1021 18.5275 15.0894 30.5771C8.07098 42.6366 5.61816 59.0061 9.34225 80.5034L8.35693 80.6741L7.37161 80.8448C3.5957 59.0483 6.03351 42.1614 13.3608 29.5711C20.6938 16.9711 32.8388 8.82031 48.1778 4.33472C78.79 -4.61731 122.386 0.943405 167.096 15.0767C211.846 29.2228 257.896 52.0158 293.497 77.7381C311.297 90.5994 326.512 104.212 337.646 117.866C348.772 131.509 355.883 145.265 357.35 158.407L356.357 158.518Z" fill="black"/>
</svg>
