<svg width="350" height="82" viewBox="0 0 350 82" fill="none" xmlns="http://www.w3.org/2000/svg">
<path d="M349.494 80.2325C349.555 80.7814 349.16 81.276 348.611 81.3373C348.062 81.3986 347.567 81.0033 347.506 80.4545L348.5 80.3435L349.494 80.2325ZM0.600722 68.5919C0.0944299 68.3713 -0.137129 67.782 0.0835204 67.2757L3.67922 59.0252C3.89987 58.5189 4.48917 58.2873 4.99546 58.508C5.50175 58.7286 5.73331 59.3179 5.51266 59.8242L2.31649 67.158L9.65028 70.3542C10.1566 70.5748 10.3881 71.1641 10.1675 71.6704C9.94683 72.1767 9.35753 72.4083 8.85124 72.1876L0.600722 68.5919ZM348.5 80.3435L347.506 80.4545C344.649 54.866 336.111 35.748 321.418 22.8015C306.717 9.84801 285.715 2.94843 257.68 2.09117C201.559 0.375103 117.732 22.8815 1.36596 68.6059L1.00024 67.6752L0.634527 66.7445C116.996 21.0217 201.168 -1.6378 257.741 0.0921029C286.052 0.957824 307.57 7.93418 322.74 21.3009C337.918 34.6745 346.601 54.321 349.494 80.2325L348.5 80.3435Z" fill="black"/>
</svg>
