<svg width="112" height="112" viewBox="0 0 112 112" fill="none" xmlns="http://www.w3.org/2000/svg">
<ellipse cx="56" cy="55.5531" rx="56" ry="55.5531" fill="white"/>
<rect x="9.34717" y="48.695" width="5.83368" height="17.4035" rx="2.91684" fill="#375E9D"/>
<rect x="72.9541" y="43.8015" width="5.13761" height="22.4349" rx="2.56881" fill="#375E9D"/>
<rect width="4.72999" height="14.402" rx="2.36499" transform="matrix(0.753538 -0.657404 0.628034 0.778186 73.8588 55.4577)" fill="#375E9D"/>
<rect width="4.84882" height="14.7431" rx="2.42441" transform="matrix(0.586846 0.809699 -0.787172 0.616734 84.5596 47.0065)" fill="#375E9D"/>
<rect width="5.78731" height="18.9583" rx="2.89366" transform="matrix(0.913569 -0.406684 0.438899 0.898536 28.795 49.3601)" fill="#375E9D"/>
<path d="M58.4785 50.467C57.6541 49.1039 55.8549 48.6222 54.4598 49.3912C53.0647 50.1601 52.602 51.8885 53.4264 53.2515L59.6284 63.5065C60.4527 64.8696 62.252 65.3513 63.6471 64.5823C65.0422 63.8134 65.5049 62.0851 64.6805 60.722L58.4785 50.467Z" fill="#375E9D"/>
<rect width="5.56911" height="16.6908" rx="2.78455" transform="matrix(0 -1 -1 0 69.8716 54.6122)" fill="#375E9D"/>
<rect width="5.56911" height="23.3347" rx="2.78456" transform="matrix(0 -1 -1 0 65.4963 65.7504)" fill="#375E9D"/>
<rect width="5.78731" height="18.9583" rx="2.89366" transform="matrix(0.913569 0.406684 -0.438899 0.898536 30.7937 47.3028)" fill="#375E9D"/>
<rect x="2.05505" y="53.568" width="5.56911" height="19.6887" rx="2.78455" transform="rotate(-90 2.05505 53.568)" fill="#375E9D"/>
<rect x="87.3395" y="59.8264" width="5.34165" height="21.578" rx="2.67082" transform="rotate(-90 87.3395 59.8264)" fill="#375E9D"/>
<rect x="95.5596" y="45.9382" width="5.13761" height="22.4349" rx="2.56881" fill="#375E9D"/>
</svg>
